<svg xmlns="http://www.w3.org/2000/svg" viewBox="0 0 345 284"><g fill="none" fill-rule="evenodd"><g fill="#000"><path d="M296.86 205.27l.36-.5.14-.1-.13.17-.37.43zm-11.65 13.8l-2.5 2.43-2.6 2.35-2.6 2.34-1.9 1.5a21.93 21.93 0 0 0 1.6-1.5c1-1.1 2.2-2.3 3.4-3.5l1.9-1.8 2-1.9 3.1-2.9-2 2.7zm-16.9 14.67c-.7.7-1.4 1.43-2.1 2.1l-2.2 2.06c-1.4 1.37-2.9 2.76-4.4 4.04-2.2 1.02-4.4 2.1-6.7 3l-1.8 1.16c-.2.16-.5.3-.7.47 1-1.75 3.4-3.05 6-4.5 2.8-1.6 5.9-3.2 7.6-5.57 1.4-1.9 3.4-3.13 5.8-4.55 1.5-.93 3.1-1.9 4.7-3.16-.9.8-1.8 1.6-2.7 2.3l-3.2 2.6zm-24 16.26c-2 1.4-4.1 2.6-6.1 3.87l-.9.44c2.1-2.2 6.7-4.5 10.7-6.2l-3.5 2zm-103.5 26.24l.5.1c1.1.13 2.2.34 3.2.55l1.6.2c-1.7-.1-3.5-.3-5.3-.9zm-18.1-1.72c-.6-.2-1.5-.36-2.6-.5l-3.7-.5c-1.2-.12-2.5-.35-3.5-.56-1-.2-1.8-.42-2.2-.63l-1.4-.75c-1.5-.2-3.2-.45-4.9-1.08-1.5-.55-1.8-1.2-2.7-1.94-.3-.3-1.1-.72-2-1.2-1.8-.72-3.5-1.63-5.2-2.5l-.2-.1a7.67 7.67 0 0 1-.6-.3l-2.1-1.04c-1.7-.8-3.7-2.07-5.3-3.08-1.2-.8-1.3-1.27-3-2.8a79.18 79.18 0 0 1-7.2-6.06l1 .54c1.4.7 5.3 2.63 8.9 4.2 1.8.83 3.6 1.53 4.8 2.07l2.1.8c4.1 1.6 8.2 3.1 12.3 4.6a234.72 234.72 0 0 0 10.3 4.5l3.7 1.5 5.8 2.3a33 33 0 0 1 1.2.5c4.9 1.4 9.9 2.6 14.9 3.4-6 1.4-11.5.5-17.9-1.7zm-86.9-84.3c-.5-1.6-1.1-3.16-1.7-4.68-.5-1.52-1.2-2.95-2-4.26-.5-1.07-1.8-7.07-1.5-7.9.3-1.24.3-2.47.1-3.68a31.93 31.93 0 0 0-.7-3.57c-.3-1.16-.6-2.28-.8-3.33-.1-1.05-.1-2.03.1-2.9 1.4-5.63-.1-9.38 0-14.08.6-9.84 2.5-20.2 5.8-28.86.8-1.95 1.4-4.13 2-6.28.8-2.12 1.6-4.18 3-5.76.5-.48 1.6-3 2.8-5.66 1.3-2.62 2.4-5.4 2.7-6.46a15.24 15.24 0 0 1 1.3-3.6c.6-1.06 1.3-1.94 1.9-2.8l2.1-2.57c.8-.86 1.5-1.8 2.1-2.88l1.1-1.78 1.2-1.73 2.4-3.46a.84.84 0 0 0 0-.04c.8-1.27 1.8-3.18 3.3-5.3 1.5-2.06 2.6-3.05 3.4-3.8.8-.75 1.5-1.12 5.4-4.84 1.2-1.04 2-1.67 2.5-2.1 1.3-1.23 2.7-2.4 4.1-3.58l1.4-1.48.6-.66 1.7-1.4c1-.85 2.4-2.1 4-3.37 1.7-1.2 3.4-2.7 5.3-4l2.6-1.9c.9-.6 1.7-1.1 2.5-1.6 3-2 4.4-2.8 5.2-3.2.9-.4 1.2-.5 2.4-1.1 1.4-.6 5.2-2.2 8.3-3.3 5.6-3 11.2-6 16.5-9.1.6.3 1.1.7 1.7.5 8.8-2.9 17.5-5.7 26.4-8v.1l3.2-.4a59.22 59.22 0 0 0 2.7-.2c7.6-.9 15.3-1.3 23-1.3l1.6-.2c3.9 0 7.8.1 11.6.2l.4.1 6.9 1c6.5.5 13.1 1.2 19.7 2 2.9.2 6.3.4 10.4.8h.5c2.1.4 4.2.8 6.3 1.3 5.6 1 13.4 2.5 23.4 6.1 7 2.5 12 5 15.5 6.9 1.8 1 3.2 1.8 4.3 2.5a98.64 98.64 0 0 1 2.3 1.6l1.5.9c1.4 1.7 2.9 3.3 4.3 5.1 2.8 2.8 5.6 5.7 8.3 8.6 2.8 2.7 5.7 5.5 8.5 8.3l3.9 5.9c1.1 1.3 2.2 2.6 3.2 3.9 2.1 2 4.2 4 6.2 6.1a92.5 92.5 0 0 1 1.5 4l1.3 1.8 2.6 2.8 2.6 2.9.3 3.3c1.8 3.1 3.7 6.2 5 9.5.6 1.3 1 2.7 1.4 4.1l-.3 1.4c.3 1.8.7 3.6 1 5.4.3 1.8.6 3.5.7 5.4 0 .9.1 1.8.1 2.7 0 .9-.1 1.8-.2 2.7-.1.9-.2 1.8-.4 2.7-.2.8-.4 1.7-.7 2.6.3 1.9.3 4 0 6.1-.8 2.8-1.7 5.4-2.6 8.9-1.1 4.4-3.9 10.3-6.9 13.2-.7 2.9-1.6 5.8-2.6 8.6a199.15 199.15 0 0 1-3.4 3.6 3984.7 3984.7 0 0 0-2 3.2c-.7 1.8-1.3 3.5-2.1 5.2l-.9-.7-2.7 3.7c-1.4 2.5-2.9 4.9-4.4 7.3l-2.1 1-3.5 4.1-1.2 2.1c-1 1.1-2.2 2.2-3.3 3.3l-2.9 3.5-2.4 3.5c-3.3 3.4-6.8 6.5-10.2 9.7-2 1.8-4 3.7-6 5.6-2.7 2.9-5.3 5.9-8.1 8.7l-3.2 1.8c-1.1.6-2.2 1.1-3.3 1.7l-1.7 1.3c-1 .8-2.1 1.6-3.1 2.3a5283.97 5283.97 0 0 1-3.2 2.2l-2.8 2.3-2.9 2.2-3.5 2.1c-1.4 1.2-2.8 2.3-4 3.5-1.2.5-2.4 1-3.5 1.6-1.2.6-2.4 1.1-3.6 1.7-1.5 1.1-2.9 2.2-4.4 3.2l-1.2-.2c-3 1.5-6 3.2-9 4.7l-2 .9c-3.1 1.6-6.3 3-9.5 4.4a101.5 101.5 0 0 1-2.5 1.9c-1.4.3-2.8.6-4.2.8-2.2.9-4.5 1.7-6.8 2.5-1.7 1.1-3.5 2.2-5.3 3.2a48 48 0 0 1-2.6-.1c-2.4.3-4.9.7-7.3.9-2.2.7-4.3 1.3-6.5 1.9l-4.3-.5c-1.5-.1-2.9-.3-4.3-.6-2.8 0-5.6 0-8.3-.3l-3.9-.3c-1.3-.2-2.6-.5-3.8-.7a36.1 36.1 0 0 0-3.3-.5c-1-.1-2.1-.3-3.1-.4-2.1-.2-4.2-.3-6.2-.5-4.1-.5-8-1.3-11.6-3.7-6.3-.4-11.4-2.7-17.5-6.2-1.1-.7-3.7-1.5-6.2-2.3-2.5-.8-4.9-1.6-5.7-2.2l-1.4-.9c-1.5-.4-3.3-.9-4.9-1.6-1.5-.7-1.7-1.4-2.6-2.2-.3-.3-1.1-.7-2.1-1.3-1.8-.9-3.6-1.8-5.3-2.8l-2.9-1.5c-1.7-.9-3.9-2-5.6-3.1-1.2-.8-1.3-1.3-3.2-2.7a135.77 135.77 0 0 1-7.9-5.5c-3.6-4.5-7.7-9.4-9.4-12.8-3.4-7.2-7.6-13.3-10.5-20.1l-.9-2.3-.9-2.4c-.6-1.6-1.2-3.2-1.7-4.9zm309.1-72.25c-.2-1.97-.3-3.08-.4-3.97v-1.04a4.67 4.67 0 0 1-.2-.48 26 26 0 0 1-.1-.78c0-.62-.1-1.37-.3-2.4a37.74 37.74 0 0 1-.1-1.26l.1-.14c0-1.76 0-3.45-.3-4.37l-.3-.74c-.2-1.5-.5-2.9-.9-4.4l-.2-.7-.6-1.9c-.2-1.7-.4-3.3-.6-5.1-.2-2-1.7-5.8-3-8.4-5.3-10.9-9.5-16.3-13.4-21.6l-3-3.9c-1.1-1.3-2.1-2.7-3.3-4.1l-1.9-2.2a46.8 46.8 0 0 0-2.1-2.4l-2.4-2.5-2.7-2.7c-1.4-1.4-3.8-3.4-4.5-3.8-4-1.8-8.1-4.7-12.3-7.4-.5-.5-1-1-1.5-1.4-.8-.8-1.6-1.4-2-1.6-2.9-1.3-5.8-3.2-8.9-5.1-3.1-1.9-6.4-3.7-9.6-5a74.7 74.7 0 0 0-7.2-2.5c-1.8-.3-4.1-.7-6.7-1l-7.7-1c-3-1-5.5-1.7-8-2.4C232.5 10 224.3 8.8 216 8l-8.24-.1-2.6-.07a364.2 364.2 0 0 0-6.7-.5H196c-1.3-.1-2.8-.2-6.9-.3l-4.6-.1c-2.16.1-4.3.3-6.3.5a56.03 56.03 0 0 0-.9 0c0-.4 0-.9-.05-1.6-3 .17-4.8 1.2-7.4 1.8-1.4.07-2.1.1-2.6.15l-1.5.23a21.05 21.05 0 0 1-1.47-.1c-1.7-.1-5.14.2-7.65.7-4.6 1-9.1 2.1-13.6 3.3-3.9 1.4-8.6 3.1-12.3 4.7L108 26.5c-3.9 1.62-9 4.1-13.8 6.6-9.5 5.9-18.6 12.7-26.7 20.5L65 56.2c-.68.76-1.24 1.4-1.64 1.9-1.43 1.76-1.3 1.87-2.03 2.8a49.8 49.8 0 0 1-1.9 2.36l-2 2.3-2.8 3.4c-1.14 1.3-2.1 2.6-3.05 3.9-.9 1.23-1.8 2.35-2.6 3.46-1.5 2.25-2.96 4.14-4 5.9-1.1 1.73-2.1 3.2-2.9 4.46A125.6 125.6 0 0 1 40 90a229.72 229.72 0 0 1-2.7 3.97 135 135 0 0 0-9 22.36c-.36 1.56-.7 3-.9 4.35l-.6 3.6c-.32 2-.42 3.3-.42 3.3l-1.4 4.68-1.22 4.7-.35 1.62-.3 1.6a42.76 42.76 0 0 1-.7 3.1c0 1.33 0 2.65.1 4l.1 3.95.2 4 .1 2 .2 2 .3 4c.1 1.3.3 2.64.4 3.97.3 2.68.7 5.3 1.1 8 1.7 10.6 4.9 21.12 9.7 30.7 1 2 2.1 4.45 3.1 6.8v-.1c-1-1.1-2-2.1-2.8-3.2a75.82 75.82 0 0 1-2.4-3.1c-.7-.97-1.2-1.94-1.7-2.8-.9-1.8-1.7-3.6-2.6-5.26-.8-1.76-1.7-3.4-2.5-5.1a110.53 110.53 0 0 1-4.7-10.2c-2.4-6.24-4-13.68-7-19.04-.6-1.1-1.9-7.2-1.8-8 .9-5.1-2.8-10.08-2.3-13.7.7-5.97-1.4-9.5-1.8-14.3-.5-4.93-.5-10.04 0-15 .2-2.45.7-4.86 1.3-7.2a42.6 42.6 0 0 1 2.4-6.56c.9-1.83 1.6-3.94 2.6-5.93 1-1.9 2.2-3.8 3.9-5.1.5-.4 2.1-2.6 3.8-4.9 1.7-2.3 3.6-4.6 4.1-5.6 1.3-2.5 3-4.1 4.8-5.4 1.8-1.3 3.7-2.4 5.5-4.2l3.1-2.8c1.1-.9 2.2-1.8 3.3-2.8h.1c1-1.1 2.6-2.6 4.5-4.4 1.9-1.7 3.2-2.4 4.2-2.9s1.7-.8 6.4-3.6c1.4-.8 2.3-1.3 2.9-1.6l4.8-2.7 2.4-1.7 1.9-1.1 4.6-2.7c3.7-2.1 8.2-4.6 11.5-6.3 6.6-3.4 5.7-2.8 8.1-3.7l8.6-3c5.9-3 11.6-6.2 16.8-9.6.7.2 1.1.6 1.8.3 6-2.4 11.9-4.8 17.8-7.1 6-2.2 12-4.2 18.3-5.5 3.5-.8 6.5-1.5 8.7-2.3 2.2-.7 3.6-1.6 3.6-2.4 0-.4.1-.9 0-1.7a15.05 15.05 0 0 0-3.2.4c-.5.1-.9.2-1.4.4a676 676 0 0 0-1.4.5c-.9.3-1.9.5-3.1.7-1.2.2-2.5.3-4.1.2-1.7-.1-5.2.4-7.7 1.1a151.1 151.1 0 0 0-13.6 4c-3.8 1.7-8.4 3.8-12 5.6-7.7 3.9-13.7 6.8-22.4 10.3-3.9 1.6-9.1 3.7-14.1 5.8-10 4.9-19.9 10.1-29.6 16-2.1 1.5-3.9 2.7-4.9 3.5-1.8 1.4-1.7 1.5-2.6 2.3a48.8 48.8 0 0 1-2.5 1.6c-1.3.9-3.1 2.3-6 4.4C30.1 65.6 24.8 71 21.7 73.9c-1.45 1.4-2.4 2.1-3.64 3.3C12.6 83.3 8 90.5 5.1 98.5c-.8 3.1-1.4 6.1-1.6 8.2-.1 1-.1 1.9-.2 2.5l-.1 1c-.8 3.2-1.3 6.5-1.7 9.8-.1 2.3-.2 4.5-.5 6.6.8 5.3 1.7 10.5 2.6 15.8 1 5.2 1.9 10.4 3 15.7 2.2 10.5 4.9 21.02 9.3 30.9 1.1 2.4 2.17 5.52 3.3 8.3 1.17 2.8 2.27 5.27 3.2 6.4 3.5 4.24 6.76 8.7 10.27 12.97 3.48 4.3 7.1 8.5 11.2 12.1 1.44 1.4 2.98 2.67 4.5 3.9l.3.2c1.2.67 2.47 1.35 3.66 2.07l.9.5c2.5 3.58 5.1 7.1 8 10.38A164.72 164.72 0 0 0 65 250l.24.2c2.27 1.5 4.6 3.4 6.4 4.9l3.1 2.5c1.8 1.9 3.7 3.7 5.6 5.5 2 1.75 4.1 3.4 6.17 5l2 1.04c1.1.6 2.6 1.5 4 2.1 1.3.7 5.3 2.5 9.1 3.8l2.7.9 2.3.7 2.2.6c4.3 1 8.6 1.9 12.9 2.4 3.7.9 7.4 1.53 11.1 2.08l1.2.2 2.8.34c2.1.3 4.7.5 6.2.7l1.3.18c5.3.08 10.6-.3 15.8-.9 1.1-.13 2.1-.3 3.2-.4l2.6-.3c4.4-.8 10.4-2.8 11.5-3.17l2.6-.56 2.5-.6c.4-.1.9-.2 1.6-.3 1.7 0 3.4 0 4.9-.2 1.9-.2 3.6-.7 4.9-1.6 2.5-.1 5.2-.4 7.8-.7 2.6-.3 5.1-1 7.2-2.1 2.6-1.3 5.2-1.8 7.9-2.3.7-.1 1.3-.2 2-.4a22.92 22.92 0 0 0 2-.7c1.3-.5 2.6-1.1 3.7-2 1.5-1.1 3.8-2.2 6.4-3.1l3.9-1.3a87.5 87.5 0 0 1 3.7-1.1c1.2-1.8 3.9-3.1 7-4.3a51 51 0 0 0 4.5-2.1c1.4-.7 2.7-1.6 3.7-2.7 1.5-1.8 3.8-2.8 6.2-4.1 2.5-1.3 5.4-2.7 8-5.2 4.4-4 10.9-9.2 16.2-14.2l2.7-3.2c.9-1.1 1.7-2.2 2.6-3.3l3.5-2.2 4.3-4.7c1-1.5 1.8-3.1 2.7-4.6 1.3-.9 2.5-1.8 3.7-2.8 1.5-1.9 3.1-3.8 4.6-5.8 1.3-2.3 2.7-4.5 3.9-6.9 1.4-1.4 2.8-2.9 4.1-4.3 1.7-2.6 3.6-5.2 5.2-7.9 1.8-3.8 3.9-9 4.5-9.9l2.5-4.1c1.3-2 2.9-4.7 4.8-8l1-2c3.1-6 5.7-12.3 7.6-19l.3-1.3c.8-2.2 1.5-4.5 2-6.9.5-1.7.7-3.4 1-5.1.2-.8.2-1.7.4-2.5.1-.9.2-1.7.2-2.6 0-1 0-2-.1-3z"/><path d="M137.9 108.5c.36.45.83 1.1 1.28 1.67 1.15.6 2.28 1.22 3.46 1.74.3.1.58 0 .75 0 .6-.1.2-.6 1.6 0s2.2 1.1 2.5 1.5c.1.2.2.5.3.7l2.5 1c.8-.1 1.5-.4 1.5-.4l.6 1.4c.2.2.3.5.4.9 2.9-.7 4.6 1.6 6.9 2.3.4.1.6 1 .9 1.3-.4.3-.8.6-1.1.9a1.57 1.57 0 0 0-.1.5c.1.5.5.5-.1 1.1-.7.6-1 .9-1.4.9-.2 0-.4-.1-.6-.1l-1 1.1c0 .4.1.7.2.9l-.2.2-1-.2c-.2.1-.4 0-.8-.1.6 2.2-1.4 2.3-2 3.5-.2.3-1.5-.2-1.3.3.8 1.6-.4 1.5-.7 2.1l-.2.3v.1c.8 1.1.6 1.4.6 1.4l-1.7-.1s0 .3-.1.5-.2 1.3-.2 1.3v.3c-.3.1-.6-.3-.5-.5.8-1.7-1.4.1-.9-.9.6-1.6-.7-.6-1.1-.8-.8-.5-1.6-1.1-1.9-2.2-.1-.4-1.2 0-.5-1.2.2-.4-.6-.9-1.2-.6-1.6.8-.3-.8-.9-1a2.98 2.98 0 0 1-.8-.3h-.1l-.2.1c-.3-.3-.4-.5.7 0-1.2-1-.7-.9.3-.6.4.2-.7-.8-.3-.6l.2.1c-.3-.2-.5-.4-.5-.4 0-.1.4.2.7.3.1.1.2.1.2.1 0-.1 0-.1.1-.2 0 0-.2-.3-.2-.5 0 0 .3.1.5.2a.8.8 0 0 1 .1-.3c.1-.2-.2-.4-.3-.5l-.4-.4s0-.3.1-.3l.9.4c-.1-.3-.6-.8-.1-.7 1 .3.6-.2.8-.4.2-.1.9 0-.4-1-.2-.2-.1-.3.2-.2 1.7.9-.6-.7.4-.3 1.5.8.1-.3.2-.4 0-.4.1-.7.8-.6.3 0-.6-.7.7-.1.3.2.4-.2-.1-.6-1.3-1 .5 0 .3-.4a1.32 1.32 0 0 1-.2-.5 6.9 6.9 0 0 1-.6-.7c-.1-.2 0-.2.1-.2s.3.2.6.1a.77.77 0 0 1 .3.1l.2-.1-.2-.2.2-.7c.1-.2.2-.1.4 0l1.1.4c0-.2-.2-.6-.8-1.3.4.3.8.5.8.5.7 0 .3-.8.1-1.4-.1-.3-1.2-1.3-2.5-2.3l-1.4-1c-.3.1 1.6 1.4.2.8-.4-.2-.6-.2-.7-.1a1.48 1.48 0 0 1-.2.5l.4.8c.2.5.1.7-.7.6l-1.2-.3c-.4.2-.8.4-1.1.7l.2.3c.2.3.5.4.2.7-.3.3-.5.5-.8.5-.1 0-.3-.1-.5-.2l-.4.7c.2.4.6.9.6.9l-1-.3c-.2 0-.4-.1-.7-.2 1.2 1.6-.4 1.4-.5 2.2 0 .2-1.3-.3-1 0 1.2 1.2.1.9.1 1.3v.2h-.1c0-.3-.2-.7-.6-.9a2.08 2.08 0 0 0-.5-1c.2-.1.4-.3.3-.5a3.62 3.62 0 0 1-.4-.9c-.2-.2-.6-.4-.9-.6-.3-.3-.1-.4 0-.6.1-.1.3-.2.5-.8 0-.1.1-.3.2-.3l.1-.5-.3-.3-.4-2.1c-.1-.7.05-.6.3-.9.1-.2.6-.6 1.05-1-.1-.7-.5-1.3-1.5-1.9.5-.1 1-.1 1-.2.1-.3.2-.7.2-1 .3.2.5.5.8.8zm31.23 14.83c.3.16 2.06.3 2.06.3l1.6.12.8 1.12s.5.74.6 1.2v.23l.3.2v1c0 .77-.4 1.06-1.3 1.1l-1.6.02c-.7.45-1.3.9-1.9 1.42a1.7 1.7 0 0 0-.1.5c0 .4.4.44 0 .9-.5-.18-1-.45-1.2-1.18-.1-.37-.9.42-.4-.86.1-.4-.5-.56-.9-.1-1.2 1.15-.3-.64-.7-.55a1.72 1.72 0 0 1-.7 0v.02a4.22 4.22 0 0 1-.8.45c-.3.1-.3-.08-.3-.18 0-.1.1-.34 0-.74a.72.72 0 0 1 0-.3 4.25 4.25 0 0 1-.2-.3l-.3.1-1.1-.57a.84.84 0 0 1-.2-.13c.1.02.2 0 .2-.1a1.86 1.86 0 0 1 .1-.65l-.1-.26.2-.7a1.05 1.05 0 0 0-.5-.1c.1-.2.2-.1.3-.1.1 0 .3.1.7 0a.7.7 0 0 1 .3 0l.3-.2-.1-.3.6-1.2c.2-.4.3-.3.6-.2.2 0 .8.2 1.2.3.2-.4.2-1-.3-1.9l.8.6a1.06 1.06 0 0 0 .4-.2l.3.7s.4 0 .7.2zm12.4 6.04c.26.67.22 1.98 1.2 1.34 1.2-.7.26 2 1.8.7.92-.8 1.16.4 1.18 1.4 1.7-1.9.7 1.6 2.2.4 1.2-.9.4 1.6 1.5 1.3 1-.2 1.7.5 2.4 1l1.4-.3-.1 1.1.7.4 1-.5v1.1l.8.4 1.3-.3.2 1.2 1 .6 1-.4-.6 2.1-1.4-.3-.7.5-.4 1.6-.6-.9-.9.5-1 1.8-.9-.7-.3.1v-.1l-.2-.1-.5.4-.5-.9-.4-.3-1.3.8.3-1.3-.1-.1-.4-.3-.6.2-.1-.3c-.1.1-.4.3-.7.5.1-.5.1-.8 0-1l-.6.3.3-.7-.6-.3-.1-.1-.4-.3c.5-1.3.1-2.8-1-3.9l-1.3-1.1c-.8.6.7 2.5-1.3 2.5-.6 0-1.2.4-1.5.9-.2-.1-.2-.5-.2-1.2.1-.4-1.1.5-1 .1v-.2c-.2.2-.4.4-.6.3-.1 0 .2-.5.3-.8.1-.1.1-.2 0-.3-.1 0-.2 0-.3-.1 0 0-.5.1-.8.1-.1-.1.1-.4 0-.6l-.6-.3c-.3-.2-.5 0-.6.1l-.5.3s-.5-.1-.5-.2l.2-.9c-.4.1-1 .4-1.1 0l.2-.1-.1-.3.7-1.2c.3-.4.4-.3.7-.2l1.2.3c.2-.4.2-1-.2-1.9l.8.6c1-.3 1.1-1.4 1.3-2.4v-.2c1.3-.9.5 2.6 2.1.9zm23.36 11.1c.4.15.6.94 1 1.1v.06l.3.1c.7-1.26.8.53 1.1.14.9-1.14 1.1-.22 1.4.6.1.36.6.32 1 .25 3-.62 3.4-.6 5.5 1.02.2.15.5.4.6.2 1-1.3 1.7-.37 2.5-.2l.8.24c.2-.15.6-.32.9-.45 1-.37 1.3-.27 2.2.52.4.36.6.75.8 1.1l-.3-.02c-.7.48-1.5 1.2-2.3 2.1h-.3l-.3.16-1.3 2-1.5-.4-1.4.8-.9 1.5-1.2-.4-.5.3-.4 1.5-1-.7-.2.1-.1 1.6-1.1-1c-.4.4-.7 1.1-1.1 1.4a7.56 7.56 0 0 0 .6-1.1c0-.2.1-.6.2-1-.2-.1-.4-.1-.5-.1-.1-.1-.2-.3-.3-.4.1-.2.3-.4.4-.7l.1-.7-.2-.2-.1-.1c.2-.6.3-1.1.3-1.7 0-.3-.3-.6-.5-.8-.5.3-.9.8-1.5 1.1-.4.2-.8.3-1.2.5.2-.4.4-.9.5-1.4.1-.1-.1-.4-.2-.6l-.7.4a2.85 2.85 0 0 0-.5.3l-1.5 1.2c-.6-.3-.7-.9-.7-1.1l-.2-.1-1.4.6v-1c.2-.4.4-.9.4-1.5a3.92 3.92 0 0 1 .6-1.8 3.26 3.26 0 0 1 1.6-1.5l-.1-.3-1-2.3c.4-.1.5-.2.9-.1zm1.6 16.22c-.7.1-1.2.1-1.6.9-.2.5-.8.9-1.5.6l.4-.3c.2-.5.6-1.1.9-1.6.4-.6.3-.5.8-.9l.6.2c.2-.2.5-.4.7-.4.3-.1.2-.2.5-.1s.2.2.6.4c-.3.7-1 .9-1.6 1zm-4.6 2.9a3.9 3.9 0 0 1-.4.3l-.1 1.3-.6-1-.4.1 2.3-1.8v1.5l-1.1-.5zm-2 2.3l-.5-.5.9-.8-.5 1.2zm-16.3 9.8l-1.6-.6c-.6.4-1.2.7-1.9.7-1.4 0-.6 3.3-2.7 1.7.1 1.7-.8 1.7-2 1.2-.5-.2-.7 1.5-1.1 1.3-.1-.1-.2-.1-.3-.2 0 .3-.1.7-.3.8-.2.1-.5-.3-.8-.6-.1-.1-.3-.1-.4-.1-.2.2-.4.3-.7.4 0 0-.5.7-.9 1-.2.1-.4-.2-.7-.2-.4.3-.8.5-1.1.7-.7.3-.6.7-.7.9l-.3.7s-.7.6-.9.5c-.1 0-.5-.3-1-.5-.5.6-.9 1.6-1.6 1.4-1.4-.4-1.9.6-2.8.9-.8.3-2 .2-1.8 2 0 .3-.7.7-.9.5-1.4-1.4-.7 1.4-1.6.7-1.5-1.1-1.1.6-1.6.9-.7.5-1.5 1-2.4 1.3 0-1.4.7-2.3.7-2.3l3.2-1.3s.4-.7.8-1.1c.4-.5 2-3 2-3l1.3-2.4 2-1.3s1.3-.7 1.9-.9l.3-.1 1.9-2 .9.5c.2-.1.5-.3.6-.3.3-.1.2-.1.4 0s.1.2.4.4l.2.1c.5-.3 1.2-1 1.9-1.9.1-.2.3-.6.4-.9-.1-.1-.3-.1-.4-.2-.1-.1-.1-.3-.1-.4l.5-.5c.1-.1.2-.4.3-.6l-.1-.2-.1-.2-1-.5-.5.5c-.2.2-.3-.2-.3-.4v-.1c.5-.2 1.2-.3 1.2-.3-1.3-2.8 3.4-1.2 2.5-3.7 1-.4 2.6-.4 2.6-1.7-.1-1.7 2.6-.4 2.1-2.6a1.12 1.12 0 0 1 0-.7c.4.5.9.9 1.4 1.2h.4c.6-.1.7-.2 1 0 .3.2.1 1 .4 1.2v.1l.3.1c1-1 .4.6.8.3 1.1-.8.9.1.8.9-.1.4.3.4.6.5h.3c-.4 1.1-1 2.4-1.8 5.2l-.1-.1-.8.5v1.7zm-35.5 18.4a4.95 4.95 0 0 1-.8.8 4.33 4.33 0 0 1-.3 1.1c-.2.4-.4.3-.6.3-.2 0-.4-.2-1.1-.1h-.5l-.7.2-.2.4-.2.1a64.38 64.38 0 0 1-.4-1.5 6.36 6.36 0 0 1-1.1-2.2c-.4-1.5 0-2.3.2-2.6v-.2l-1.3-1.6.9-1-.2-1.2-1.1-1.1.9-.8-.1-.5-1.2-.8.5-.2.4.2c.1-.2.1-.4.3-.5.1-.1.3-.1.5-.2.1.2.2.5.4.7 0 .1.3.2.5.4l.3-.1.1-.1.8-1.4-.4-.6c-.1-.3.3-.5.5-.5.1-.1.4-.1.7-.2l.7-1.2a3.83 3.83 0 0 1 .3-1.7c.4-1 1.2-1.1 1.4-1.1l.1-.2-.3-1.5h1.2l.4-.7-.3-1.2 1 .1.2-.3-.6-1.1 1.1.3v-.1l-.8-1.2 1.2.6c.1-.6-.7-1.7.9-1.3-.9-1.1-.5-1.5 0-1.7l.4-.1c-.1.3-.5 1.1.4.2.9-.8.6 0 .3.9 1.6-1.9-.1 1.1 1.2-.1 1-1-.3 1.2.5.7.6-.4.8.1 1.1.3l.9-.6-.4.9.2.2.8-.7-.3.9.3.2.1-.1v.4l-2 1.1c-.4.3-.8.6-1.3.7-.8 4.6-4.3 7.7-6.2 11.7-.5.9-2.4 1.6-2.3 2.4.2 1.2-.2 2.2-.7 3.2l3.7 2.7c-.3-.1-.5-.2-.6 0zm50.9-35.2c-.3.3-.3.1-.1-.2.2-.4.5-.9.8-1.2v.1a3.6 3.6 0 0 1-.8 1.2zm-2.4 2l1-1.3a40.83 40.83 0 0 1 2-2.2c-.8 1-1.8 2.3-3.1 3.4zm-1 6.3a1.86 1.86 0 0 1-.1-.2l-.1-.1.6-.3c.3-.2.7-.3 1-.4l-.1.5-1.4.3zm3.9-9.9c-.8.2-1.4.4-2 .5a18.45 18.45 0 0 1 1.9-.5zm-.1-.2l.1.1c-.3 0-.6 0-.7-.1-.1-.1.1-.2.6 0zm.1.2c-.8.4-1.5.7-2 .9a26.9 26.9 0 0 1 1.9-1zm0 0c-.8.7-1.5 1.2-2.2 1.6.8-.6 1.5-1.2 2.2-1.6zm-14.8 2.7c-.3-1.7 2.2-.5 2.7-2 .5-1.3 1.9-2.1 3.1-3 .2-.6.4-1.2.7-1.8l1.2.3v.1a.36.36 0 0 1 .1.1c.3.3.6.6 1 .8-.5.3-1 .7-1.4 1.2l-.2.2-.6.8c.6.4.3.8-.3 1.2-.5.4-1.2.9-1.1 1.1.6.4.5.7 0 1.2-.4.4-1.2 1-1.9 1.6l.2-.5c-.8-.2-2.1.4-1.8-1.3-.9.6-1.4.5-1.7.2a1.38 1.38 0 0 0 0-.4zm-13.3 5.2h-1.2l-1.1 1.1v2l-2.2.4-.5.6c.1-.4.2-.7.1-1-.7-1.9 1.4-1.4 1.7-2.4.2-.6.4-1.1.7-1.7-.1-.4-.1-1 0-1.6.1-.6.4-.8.6-.9s.5-.1 1.3-.9a2.66 2.66 0 0 1 .6-.4c.2-.3.5-.6.8-.9v-.3c.2.2.4.3.6.4l1.2-.4-.2 1 .5.3.9-.6-.2.8-.6-.4c-.6.5-1 1-1.6 1.5l-.4.3-1.5 1.6.1 1zm-9.2 8.8c0 .1-.1.3-.2.7a1.6 1.6 0 0 1-.5.1l.7-.9zm-1.6 2.1c-.1.2-.2.4-.3.5l.3-.5zM144 149.7l-.2-.2.2.16-.05.03zm-2.8 5.7l-.26-.4.34.2-.1.2zm-.57.46l.36.1-.2.3-.2-.46zm10.4 1c-.04 0-.03-.05 0-.08v.04H151zm9.9-14.1c-.1-.14-.16-.37-.2-.67.17.3.2.5.2.7zm-16.4 6.16l.95.56a2.43 2.43 0 0 0 .3-.2l-.2-.34.43-.07.2-.3-.3-.57 1-.4.3-.4-.5-1.37 1.3.4.1-.1c.1-.1.2-.2.4-.3l-.1-.63.4-.08c-.1-.2-.2-.44-.4-.76.5.17.8.2 1 .15l-.2-.6.7.4c.2-.1.2-.3.4-.5l.1-.1.4-.5-.5-.7.8.3c.3.3.5.6.9.8l.5.3h.1c1.1-.7 1.7-.4 1.7-.4l.4 2s.4.1.6.3c.3.2 1.8.4 1.8.4l1.4.1c-.2.1-.6.1-.9.1a1.23 1.23 0 0 1-.2 0l-.7.9c0 .1 0 .2-.1.2l-.1.2c-.1.3.3 1.2.2 1.2 0 .1-.2.2-.3.3 0 .1-.9-.1-.9-.1 2.1 2-1.9-.1-.2 1.7-.5 0-1.7-.3-1 .6.8 1.1-1.7-.3-.4 1.1.8.9-.1.8-1 .5 1.9 1.7-1.2.1 0 1.4 1 1.1-1.3-.1-.9.8.3.5 0 .8-.2 1.1a.9.9 0 0 1-.3 0c-.1 0 .2-.3.2-.5a1.65 1.65 0 0 1-.4-.3c-.2-.1-.5.1-.6.2l-.5.2s-.4-.1-.3-.2c0 0 .2-.4.5-.8-.4 0-1 .3-.8-.2.5-1-.2-.8-.4-1.1-.2-.3.1-1-1.3 0-.2.2-.4 0-.2-.2 1.1-1.4-1 .3-.4-.5 1-1.3-.4-.3-.6-.4-.4-.2-.8-.5-.7-1.2.1-.3-.5 0-.4-.3a2.2 2.2 0 0 1 .2-.2l.2-.2c.2-.2 0-.4-.4-.3l-.2-.3zm-3.4-3.58l.24.35a3.7 3.7 0 0 0-.56.1l-.3.1.7-.7zm-1.95-12.7l-.2-.2h.12l.1.2zm1.7 61.96l.44-.05c-.2.1-.3.1-.42.07zm5.94-32.13c.17.5.32.57.16.8-.14.23-.86 0-1 .2 0 0-.06 0-.07.03l-.1.18c1.1.93-.5.27-.2.63.9 1 .1.8-.7.6-.3 0-.3.3-.3.5.2 2 .1 2.2-1.6 2.9-.2.1-.4.1-.3.3 1 1.2.2 1.2-.1 1.6l-.3.5c.2.3.3.5.4.8.3.8.2.9-.5 1.3-.4.2-.9.2-1.3.3l-.6 1.1a2.48 2.48 0 0 1 .2-.5c.3-.5.5-.9 0-1.4-.4-.4-.4-1.1.8-1.6l-2-.8 1-.5a2.63 2.63 0 0 1-.1-.4l-1.2-.5h1.2a5.13 5.13 0 0 1 0-.5l-1-.9 1.1-.3a6.3 6.3 0 0 0 0-.6l-.3-.2.2-.5v-.5l-.6-.4.5-1.5v-.9l-1.4-1.2 1.2-.8v-.2c0-.3 0-.5.1-.8l-.3-.5.6.1.5-.6-.3-1.2 1 .2.2-.2-.2-.5c1.8-.4 1.6 1.3 2.6 1.7.2.2-.5 1.4 0 1.2 1.5-.9 1.2.3 1.7.5.1.1.2.1.2.2h.1c1-.7 1.3-.6 1.3-.6l-.4 1.6s.3 0 .4.1c.1.1 1.1.1 1.1.1l.9-.1-1 .2a.44.44 0 0 1-.1.1c-.5.3-.8.6-1 1l.1.3zm11.12-1.4c-.1-.08-.18-.2-.26-.3l-.55.2-.06-.3c-.17.1-.38.22-.68.5.1-.44.2-.7.2-.9l-.6.3.4-.6c-.1-.14-.3-.2-.4-.3 0-.04-.1-.05-.1-.07l-.4-.3-.6.56.1-.4.6-.33.3-.4-.6-1.4 1.3.32.1-.1.3-.4-.1-.64.3-.1c-.1-.2-.2-.4-.5-.7.4.1.7.1 1 .1l-.3-.6.6.4c.1-.2.2-.4.4-.5l.1-.1.4-.6-.6-.6.9.3.3-.4-.9-1.2 1.4.3c.2-.3.4-.6.9-.7.9-.1-1.4-2.4.9-1.4-.3-.3-.4-.5-.5-.7h.1c.1.1.3.3.4.3.1.1.1 1.1.1 1.1 1.9-2.2.5 2.2 2.2.4.1.6 0 1.9.9 1.2s.4.9.9.9c-.2.5-.4.9-.5 1.1-.3 1 .5.4-1.2 2.7-1.7 2.3-2.7 3.5-3.4 4.1-.3.3-.6.3-1 .5l-.6.9v-.1c-.1 0-.2 0-.2-.1l-.5.4-.3-.8-.3-.3-1.2.7.5-1.3h-.1zm28.2-13.98l-.26.1c-.5.3-.96.7-1.4 1.1-.4.8-.8 1.7-1.18 2.6h-2.05l-.32.3c-.4.3-.87.7-1.3 1l-.5.8-.9.2.4-1.1a5.93 5.93 0 0 0-.4-.4l-.4.1-.27-.5-.4-.2-.63.3-.8-1.1c.2-.2.32-.2.6-.3.3-.2 1.26-.5 2.02-.8.76-1.1 1.3-2.4 1.37-4 .48.2.9.5 1 .4a10.3 10.3 0 0 0 1.46-1.4c0 .5-.1 1.3.58.7.95-1-.2 1.6 1.07.2.75-.9.7 0 .54.9 1.43-2.1.2 1.2 1.35-.1.7-.9.3.4.42.7zm-15.85-8.5c.3.1.1 1.5.4 1.2 1.4-1.2 1.5.1 2.2.3.1 0 .2 0 .3.1v-.1c.9-.9 1.3-.8 1.3-.8l.1 1.8s.3-.1.4 0 1.2-.1 1.2-.1l1-.2.2.6-.3.7c-.7 1.7-1.7 2.7-3.4 3.8l-2.8 1.8-.6.6c0-.4-.1-.7-.2-1l-.8.2.3-.7c-.3-.2-.6-.3-.9-.5l-.2-.1-.9-.5-.7.5.1-1-.6-.4-1.3.9v-.1a.4.4 0 0 0 0-.2v-1.2l-.2-.1.1-.1.9.3c0-.5-.2-1.2.3-1.2 1.1.2 1-.5 1.4-.9.3-.3 1.2-.3.2-1.6a.3.3 0 0 1 .3-.4c1.6.9-.3-1.1.7-.7 1.5.7.4-.6.5-.9l.3-.5h.1zm-15.3-2.1c0-.1.3.1.6.1.1-.2.2-.4.3-.5.2-.3 0-.6-.1-.7a81.73 81.73 0 0 1-.2-.6s.1-.5.2-.5.5.2.9.4c0-.5-.2-1.2.3-1.1 1.1.2 1-.5 1.3-.8.3-.3 1.1-.2.1-1.5-.2-.3.1-.6.3-.4 1.6.9-.3-1.1.6-.6l.2.1v.2c.4.6.9 1.2 1.5 1.8h.5c.4-.1.4-.6 1.1 0 .7.6 1 .9 1.1 1.3v.6l.9.5c0 1.6-1.7 2-2.3 3.2-.2.3-1.6-.2-1.4.3.8 1.6-.4 1.5-.7 2.2l-.2.4c-.4 0-1 .3-1 0v-.3c-.3.1-.6.3-.8.2-.1-.1.1-.6.2-.9a.38.38 0 0 0 0-.3c-.2-.1-.4-.2-.5-.3 0 0-.7 0-1-.2-.2-.1 0-.4-.1-.7l-.8-.5c-.5-.3-.7-.1-.9 0l-.6.2s-.7-.3-.7-.4l.1-.7c.1.1.2.1.3 0 0-.1.1-.3.2-.3 0 0-.1-.5 0-.8zm-1.3.6l.1.1a3.63 3.63 0 0 1-.2 0zm-11.4.2c1.3 0 2.1.5 2.8 1.2-.2 0-.1.2.3.7-.6-.1-1.7-.5-1 .4.8 1-1.7-.5-.4 1 .8.8-.2.7-1 .4 1.8 1.7-1.2 0-.1 1.3 1 1.1-1.2-.2-.9.6.3.7-.2.9-.5 1.3l.5 1-1-.4-.2.2c.1-.8-.8-.8-1.6-1-.3 0-.8.2-1.5.6.1-.2.4-.5.7-.7.3-.3-1.1-1.1-.7-1.3l.2-.2c-.3-.2-.6-.4-.7-.5-.1-.2.5-.3.8-.4a.4.4 0 0 0 .2-.3c-.1-.2-.1-.4-.1-.7 0 0-.4-.6-.5-1 0-.2.3-.2.5-.5a7.8 7.8 0 0 1-.1-1c0-.6-.4-.7-.5-.8l-.5-.4h.2l.1-.2-.5-.4a1.54 1.54 0 0 1 0-.3l.7.2v-.1l-.5-.5.2-.1.5.2c0-.1-.1-.2-.2-.4l.3-.2a3.42 3.42 0 0 0-.2-.3l.4.1c-1.1-.9-.9-1-.5-1 .3 0 .6 0 .2-.4-.3-.4-.2-.6.9-.1l-1-.8v-.2l.3.1a.4.4 0 0 1 0-.2l-.4-.2a1.8 1.8 0 0 0 0-.2l.4.2a.63.63 0 0 1 .1-.1l-.6-.6.9.4a.82.82 0 0 0 .1-.1c0 .2-.1.4-.1.7.6.5 1.1 1.1 1.7 1.6.8.1 1.5.1 1.5.1v1.4c.1.2.1.5 0 .9zm-3.7-15.5c.2.3.2.4.2.4l-.4-.1.1-.3zm-7.6-16.2v1.4c.3.4.6.9.9 1.3.5.8.5 1.5-.1 2.5l-1.1 1.6-.3 3.4.3.6c.3.4.6-.1.6 1.3v.4h-.1l-1.6.8c.1.5 2.2-.5 1.2.8-.3.3-.3.6-.2.9-.1 0-.2.1-.2.1l.1 2.4c.4.6 1 1.1 1 1.1l-1 1.1c-.1.2-.3.4-.7.7 1.9 2 .6 4.2 1 6.3.1.5-1.2 1.3-.7 1.6.6.3.9.6 1 1h-.2c-.1 0-.3 0-.2.1.2.1.3.2.4.3v.6l-.1.2s0 .1.1.1c-.1.2-.1.5 0 .7v.4h-.8l-.4.7c.2.1.3.3.4.5.1.2.1.1 0 .3-.1.1-.2 0-.4.2a.93.93 0 0 1-.2.1c.3.3.8.8 1.5 1.4.1.1.1.2.1.4.1.3.8 1.7.8 1.7l.7 1.3-.5 1.1s-.4.7-.7 1l-.2.1.1 1.6c0 .1.1.2 0 .3v.3c.2.4 1 1 1 1.1 0 .1-.1.4-.1.5 0 .1-.8.7-.8.7 2.9.4-1.5 1.7.9 2.1-.4.5-1.5 1.1-.4 1.5 1.3.5-1.5 1.1.4 1.6.3.1.5.2.5.4v.1c0 .3-.5.7-1 1 1.3.1 1 .4.7.8-.4.1-.8.1-1.1.2l-.9 1.3c.1.3.2.6.2.8 0 .2.1.2-.1.4s-.3.1-.6.4a2.63 2.63 0 0 1-.2.2c.1.7.6 1.5 1.4 2.5.1.1.5.4.8.6.1-.2.1-.3.3-.5.1-.1.3-.1.5-.1l.3.7v.2l.5.2a.86.86 0 0 1 .1.1l.5.2-.9.6.1.7.9.7-.9.6v1c.5.4 1.3.9 1.3 1 0 .2-.3.7-.7 1.5a.9.9 0 0 1-.1.2c-.2.7-.2 1.4-.2 2.1l.3.3c.5.5.6.4.6.8s-.7.8-.7 1.1v.4c1.4.2-.3.8.2.9 1.4.4.5.8-.1 1.3-.3.2-.1.6 0 .9 1.5 2.3 1.5 2.6.7 4.9-.1.2-.2.5 0 .6 1.6.4 1 1.3 1.1 2l.1.7c.2.1.5.3.8.6.4.3.6.5.7.8l-.3-.2c-.2-.1-.7 0-1 0v.9l-.3.6c-.3-.2-.5-.4-.8-.6h-.7l-.1.3a.75.75 0 0 0-.1.3l.1 2.4.7.4c.3.13.1.63-.1.94l2.4-.4v.1a4.35 4.35 0 0 0-.5 1.4c-.3-.45-.5-.87-.6-.85-1.7.2-2.8 1.6-4 2.83-.7.7-.6 2.3.1 3.8l.7 1.5c.7-.1-.2-2.3 1.2-1.3.4.2.9.2 1.2.1l1.5-.9 1.1-1.4c.7-.9 1.5-1.2 2.8-1.2l2.2.2c1.3-.5 2.7-1 3.9-1.6l.6-.6c.3-.6-.3-.6 1.3-1.4 1.6-.7 2.5-1.1 3-1.1.3 0 .5.1.8.2l2.6-1.4c.5-.8.8-1.5.8-1.5l1.6.3c.3 0 .6 0 1 .2 1.4-2.8 4.4-2.9 6.6-4.4.5-.3 2 .4 2.1-.2.3-2.1 2-1.8 3.1-2.6l.6-.4v-.1c0-1.4.7-1.9.7-1.9l2.4.3s.3-.4.6-.6c.4-.2 1.6-1.6 1.6-1.6l1.1-1.4 1.5-.2s1-.1 1.5 0l.3.1 1.7-1c.1-.1.2-.2.3-.2l.3-.2c.4-.4.7-1.4.8-1.5.2-.1.5-.1.6-.2.2-.1 1.2.3 1.2.3-.9-2.8 2.6.4 1.9-2 .75.1 1.9.7 1.9-.5 0-1.4 1.9.7 1.6-1.3-.2-1.2.9-.9 1.85-.5-.8-2.3 1.8.1 1.5-1.7 0-.5.1-.6.4-.6l.02.26.6 3.5 1.2-3.7c.3-1 1.3-1.27 2.1-1.7l.4-1.4.9.6.7-.4v-1l1 .53.8-.5.4-1.3 1.1.4 1.1-.6c.2-.7.4-1.6.5-1.7.2-.1.85-.2 1.9-.2.1-.04.15-.1.25-.1.8-.24 1.6-.6 2.3-1.05l.2-.4c.3-.7.2-.8.6-1.1s1.1.2 1.5-.1c.04-.05.1 0 .1-.05l.3-.2c-.4-1.4 1-.2.9-.7-.1-1.5.7-1 1.5-.6.4.1.7-.3.9-.6 1.9-2.6 2.26-2.85 5.1-3.3.3 0 .7-.1.7-.3-.16-1.7 1.04-1.6 1.8-2.06l.8-.5.3-1 .1-.1 1-.2.43-.8c.2-.3 1.1-.3 1.6-.38h.1l3-.6.2.3c.2-.18.46-.36.7-.5l.2-.06c.3-.1.6-.1.8-.2 0 .3-.2.6-.2 1 0 .1.2.4.3.6l.44-.1c.1 0 .2 0 .3-.1l1.7-1.2-4.9-7.5-.8.5c0 .4-.1.7-.1.8 0 .3-.5.46-.9.5l-.3-.5a10.94 10.94 0 0 0-.5-.8c-.8-.5-1.7-.9-2.5-1.27a20.63 20.63 0 0 1-3.3-.6c-1.9-.5-2.7-1.3-2.9-1.6l-.3-.1-2.3.6-.8-1.3-1.5-.3-1.6.6-.6-1.1-.6-.1-1.3.9-.2-1.2h-.2l-1.2 1.1v-.9c-.9 0-2 1-2.3-.7-1 1.2-1.8.7-2.3.1-.4-.4-.7-.8-1.4-.5-.7.2-1.3-.1-1.2-1.5l-1.1.8-.4-.9-.3 1.2-.1-.9a3.02 3.02 0 0 1-.4-.1l-1.1.8.5-1a6.12 6.12 0 0 1-.4-.3l-1.3.4.3-1.1a7.57 7.57 0 0 0-.5-.3l-.4.2-.4-.6c-.2 0-.3-.1-.5-.2l-.7.3-1.2-1.3-.8-.5-1.9.4-.1-1.5-.2-.1c-.3-.1-.5-.3-.7-.5l-1-.1-.3-.4c-.3 0-.6.1-1 .3 0-.6-.16-.9-.37-1.2l-.86.1.3-.7c-.4-.3-.7-.4-1.1-.6l-.2-.2-1.1-.7-.7.5v-1l-.8-.4-1.4.8-.24-1.6c-.6-.3-1.2-.6-1.6-1.2-.6-1.1-3 1.3-2.7-1.3-1.3 1-1.7.3-2-1-.1-.5-1.6.3-1.6-.2v-.3c-.3.2-.6.3-.9.2-.1-.1 0-.6.1-1a.43.43 0 0 0-.1-.4c-.2 0-.5-.1-.68-.2 0 0-.8 0-1.3-.1-.2-.1 0-.4-.2-.7a10.5 10.5 0 0 1-1.1-.52c-.6-.3-.8 0-1 0l-.7.22s-.8-.27-.9-.4l-.1-1.1c-.8 0-1.7.24-1.9-.4-.5-1.3-1.5-1.2-2.3-1.6-.7-.4-1.3-1.4-2.6-.2-.3.2-1-.1-.9-.4.2-1.97-1.5.3-1.5-.8 0-1.8-1.1-.5-1.6-.6-1.2-.4-2.4-.7-3.2-1.7-.4-.5-1.4.4-1.3-1.1 0-.4-1.2-.7-1.7-.2-1.2 1.3-.9-.7-1.6-.65a4.56 4.56 0 0 1-1.1 0c-.2.2-.6.4-1 .5-.3.1-.4-.1-.5-.2-.1-.1-.1-.4-.6-.9a1.16 1.16 0 0 1-.3-.3l-.6-.36-.46.1-2.4-.6c-.8-.2-.6-.33-.85-.7-.1-.2-.4-.9-.7-1.4-.8-.1-1.7 0-2.7.6l.2-1c-1.3-1-3-.8-4.6-.7-1 0-2 1.2-2.5 2.8l-.5 1.6c.3.3.9-.8 1.3-.8z"/></g><path d="M-28-59h400v400H-28z"/></g></svg>