<svg xmlns="http://www.w3.org/2000/svg" viewBox="0 0 343 286"><g fill="none" fill-rule="evenodd"><g fill="#000"><path d="M261.57 247.86c-3.28 2.04-6.65 3.75-11.02 5.45a142.63 142.63 0 0 0 4.45-2.2 127.96 127.96 0 0 0 10.44-7.4 148.8 148.8 0 0 0 5.8-3.1c-3.55 3.2-6.6 5.5-9.67 7.4zm-168.8 30.7a.6.6 0 0 0 .03 0l-.4.05h.37zM68.53 265c-.97-.47-1.95-.86-2.83-1.38l-2.62-1.53c-.86-.6-1.7-1-2.53-1.6l-2.37-1.8-2.37-1.8c-.7-.7-1.5-1.4-2.2-2.1l-2.3-2.2L49 250l-2.2-2.56-1-1.34c3.8 2.84 7.7 5.4 11.7 7.6.1.7.1 1.3.6 1.77 5.3 4.3 10.7 8.17 16.3 11.83-.9-.37-1.9-.7-2.8-1.1l-2.9-1.34zM14.6 201.8a52 52 0 0 1-1.6-2.96 49.13 49.13 0 0 1-1.08-2.18c-.95-1.95-1.12-1.9-1.6-2.92-.2-.53-.58-1.3-1.04-2.78A59.15 59.15 0 0 1 7.5 184c-1.3-6.6-1.48-11.85-1.48-15.87.02-4.02.34-6.84.62-8.83.32-1.9.63-2.97 1.08-4.54.32-2.3.73-4.6 1.2-6.9 0 .8-.07 1.56-.2 2.3-.15.7.17 3.7.7 6.78.52 3.07 1.23 6.23 1.72 7.3 2.54 5.48 1.22 9.43 2.57 14.7l2.2 8.64v.05a120.76 120.76 0 0 1 2.3 6.16c.9 2.5 1.1 4 1.3 5.2.2 1.1.1 1.9 1.4 7.5.4 1.6.6 2.6.7 3.4a215 215 0 0 0 1.4 4.8c-3.1-4.1-5.9-8.4-8.1-13zM95.77 27.5l2.25-1.73 2.35-1.62.24-.24c1.8-1.9 4.2-3.7 6.2-4.9 1-.6 1.9-1.1 2.5-1.4l1-.5c4.9-1.8 9.8-3.1 14.8-4.2l2.1-.7c1.2-.3 2.8-.8 4.2-1.1 1.5-.3 5.6-1.5 9.4-2.2 1.9-.4 3.8-.7 5.1-.9l2.3-.3a142.54 142.54 0 0 1 13-1.4c3.8.2 7.5.4 11.3.8l1.2.1c.7.1 1.7.2 2.8.3 2.2.3 4.7.7 6.2 1l.8.2-1.4.1h-2.4c-.8.1-1.6.1-2.4.1-1.6 0-3.4 0-5.2-.1-.6 0-1.7.1-2.8.3l-1.9.3-2 .5c-2.6.7-5.1 1.4-6.1 1.4h-1.7c-.8.3-1.6.6-2.5.9-.9.3-1.7.6-2.7.9-1.6.5-2.3.1-3.5 0-.5 0-1.4.1-2.6.3l-3 .8a131.82 131.82 0 0 1-3 .9l-3.3 1.2c-1.9.7-4.3 1.5-6.3 2.2-1.4.6-1.9.3-4.2 1-3.3 1.3-6.7 2.4-9.9 3.9-5.6 2.4-6.1 3-7.5 3.7l-2.4 1.5-1.4 1s-6.4 3.4-7.4 3.9c-.5.3-2.5.9-4.8 1.7l-4 2.4c-1.3.9-2.6 1.7-3.7 2.6-2 1.5-3.9 2.8-5.5 3.7 5.1-5.8 10.8-11.1 16.6-15.6zm220.2 28.7a26.27 26.27 0 0 1 2 3.3 88.86 88.86 0 0 0 1.57 3.1l-.12-.15c-1.4-1.6-2.74-3.25-4.23-4.76-.7-1.2-1.3-2.4-1.9-3.5l-.7-1.1a9 9 0 0 0 .9.6c1 .6 1.7 1.5 2.4 2.4zM235.4 252.68c-1.85.66-4.82 1.67-5.56 2.18-5.27 3.7-12.96 5.94-19.57 8.46-2.4.92-4.8 1.78-7.2 2.68-1.73.85-3.85 1.86-6.3 2.97-3.5 1.54-5.97 2.54-8.77 3.44-1.1.4-2.26.8-3.55 1.1l-3.24.5c-6.1.8-10.1 1-14.3 1.4-8.2 1.2-16.5 2.1-24.8 2.3-2.6.3-5.7.5-8.2.5-3.7-.1-2.6 0-7.4-.5-4.8-.6-3.7-.6-11.1-1.7l-.4-.1a18.8 18.8 0 0 0 0-1.1c-1.6 0-2.8.3-4.1.6a3.3 3.3 0 0 0-.1 0c-2.8-.1-5.6-.1-8.2.1-.2-.1-.4-.1-.6-.2-.8-.3-2-.6-3.4-.9a51.23 51.23 0 0 0-2.1-.3l-1.9-.4-1.7-.3c-1.4-1.2-3.5-2.7-5.2-3.8a348.3 348.3 0 0 1-11.7-7.8 431.04 431.04 0 0 1-11.2-7.1c-7.2-4.7-12.5-9-19.4-15.5-3.2-3-7.2-7-10.8-11l-.1-.1a73.78 73.78 0 0 1-1.9-4.2c-2.1-5.1-3.7-10.4-5.2-15.8l-1.9-5.8c-.7-2.1-.9-2.1-1.3-3.2s-1-3.4-2.5-10.2c-2.9-13.7-3.9-21.2-4.4-25.3-.2-2-.1-3.2-.2-4.8-1.2-8-2.2-15.9-2.1-23.7a84.02 84.02 0 0 1-.1-5.7l.2-.7 1.2-3.4 1.1-3.1a162.77 162.77 0 0 1 5.2-7.9c1.2-1.8 2.4-3.6 3.7-5.1 1.1-2.3 2.3-4.5 3.7-6.8a286.8 286.8 0 0 1 4.2-6.5l2.2-3.2 2.4-3.1 4.9-6.1 5.6-6 2.8-2.9 2.9-2.7c1.9-1.8 3.8-3.6 5.8-5.4l6-5.1c1-.9 2.1-1.7 3.3-2.6 1.2-.8 2.6-1.6 3.8-2.4 2.5-1.5 4.7-2.9 5.7-3.9 7.6-7.3 17.4-12.3 26.8-17 1.7-.9 3.4-1.8 5.2-2.6l.3-.2c2.1-1.6 4.7-3 6.8-4.1a77.74 77.74 0 0 1 2.6-1.3c.7-.3 1.1-.4 1.1-.4l7.5-1.9 3.7-1 3.8-.7s3.4-1.2 6.3-2c1.4-.5 5.5-1.5 9.3-2.6 1.9-.5 3.6-1 5-1.3l2.2-.4c4.2-.9 8.5-2 12.8-2.6l5.6-.3c.9-.1 1.8-.1 2.8-.1h2.7l3.9.1c2.1.1 4.6.1 6.1.3l1.3.1c5.2 0 10.4.3 15.6.7 1.1 0 2.1.1 3.2.2l2.6.28c4.4.3 10.7.3 11.9.5 1.5.2 3.7.6 5.2.9 1.5.2 6.9 1.9 6.9 1.9.9-.3 1.9-.4 2.9-.36 2.7.9 5.2 1.7 7.4 1.58l.4.1 2.1.7c4 1.8 8.1 4.1 12 4.8 1.4.2 2.7.7 3.8 1.3 1.2.57 2.3 1.4 3.4 2.1.6.3 1.1.7 1.7 1l1.7 1.1c1.2.6 2.5 1.1 3.9 1.4 3.6.78 8.8 5.3 11.8 8.8 2.1.2 4.4 2.28 6.5 4.7 1.1 1.2 2.1 2.5 3.3 3.67 1.1 1.1 2.2 2.2 3.5 2.9 2.07 1.1 3.4 3.17 4.9 5.5 1.4 2.37 3 5 5.3 7.7 1.9 2.27 3.9 5.2 5.7 8.4.5.8.9 1.6 1.3 2.5l1.2 2.5c.8 1.7 1.5 3.4 2.3 5.05 1.3 2.5 2.7 4.9 3.9 7.5l.1 2.1v2l.9 3.1.77 3.1c.7 1.66 1.36 3.3 2 5-.04.8-.04 1.6-.1 2.35l-.2 2.3c.4 2.4.5 4.9.8 7.35.4 2.6.9 5.2 1.1 7.8-.2 1-.3 2-.5 3l-.6 2.9c-.1 1.6-.3 3.1-.5 4.7l-.3 2.3-.4 2.3c0 4.2-.7 9.8-1 10.9l-.5 1.7-1.1 2.8c-.4 1.2-.9 2.5-1.5 3.9-.6 1.5-1.3 3-2.2 4.7l-.9 2.1a154.72 154.72 0 0 1-10 17.6c-.5.9-.9 1.8-1.4 2.6-2.4 4.2-2.1 4-4.6 7.3-2.5 3.3-5 5.2-7.5 8l-.5.5c-.62.8-1.3 1.5-2 2.3-.9 3.06-5.3 5.3-6.3 6.94-2.8 4.8-5.7 6.35-9.4 8.85-1.64 1.1-4.5 3.9-6.6 5.8-4.3 4.1-7.9 7.1-11 9.6-3.2 2.5-5.9 4.4-8.7 6.1-5.6 3.3-11.3 5.9-21.3 9.5zm106.87-137.42c-.04-1.92-.07-3.84-.26-5.75l-.5-2.4c0-1.7-.2-3.3-.3-5l-.4-2.4-.5-2.4c-.5-1.4-.9-2.8-1.5-4.2-.5-2.4-1-4.9-1.7-7.3-.3-1.2-.6-2.4-1-3.6l-1.2-3.5c-.3-.7-.5-1.4-.8-2l-.9-2c-.6-1.3-1.1-2.7-1.8-4l-1.7-2.7c-.5-.9-1.1-1.8-1.7-2.6l-1.9-2.6-.9-1.3-1-1.2-1.5-3.5c-.5-1.2-1.1-2.3-1.7-3.5l-1.3-1.8c-.8-1.1-1.8-2.1-2.6-3.2l-1.4-1.6c-.4-.5-.9-1-1.4-1.5l-2.8-2.7c-.9-.8-2-1.6-3-2.5l-1.5-1.5c-.5-.5-1-1-1.6-1.5-1.6-1.1-3.2-2.2-4.9-2.8a55.88 55.88 0 0 0-3-2.8c-1.1-.9-2.2-1.7-3.4-2.5-1.7-.9-3.5-1.6-5.3-2.3l-.5-1.1c-3.2-1.7-6.6-3.1-10-4.4a57.9 57.9 0 0 0-2.2-.8 136 136 0 0 0-11-3.4h-3.3a189.1 189.1 0 0 0-4.1-1.7 275.87 275.87 0 0 0-7.6-1.5h-.8c-.6-.3-1.2-.6-1.8-.8a230.2 230.2 0 0 0-7.6-1.8c-2.4-.1-4.7-.1-7.1-.1a500.22 500.22 0 0 0-8.6-2.9c-5.8-1-11.5-2-16.7-3.2-4.7-1-9.2-1-13.5-1.1-4.3-.1-8.4-.4-12.7-1.9-6.5 1-12.2.3-19.6-.6-.6-.1-1.7 0-2.9.1s-2.6.3-4 .5c-2.7.5-5.3.9-6.3.9-.6 0-1.1-.1-1.7-.1-1.6.5-3.4 1-5.3 1.3-1.7.3-2.4-.1-3.6-.2-.5 0-1.4.1-2.6.3-2.1.4-4.2 1-6.3 1.5l-3.5 1c-2 .7-4.5 1.6-6.5 2.4-1.4.5-1.9.3-4.4 1.08-1.7.6-3.3 1.4-5 2.18-1.7.8-3.3 1.6-4.9 2.5l-3.3 1.9L99.5 18c-1 .7-1.4 1.1-2 1.6L95 20.9l-1.3 1.2-.95.7c-.6.42-1.35 1-2.1 1.7-1.56 1.23-3.15 2.7-3.6 3.02-.44.33-2.3 1.44-4.4 2.8-4.3 4.5-8.3 9.84-11.4 12.35-3.3 2.7-6.1 5.4-9 8.2-2.83 2.8-5.6 5.5-8.5 8.2-5.2 4.7-11.53 9.8-14.8 15.37-.7 1.1-5.2 5.8-5.92 6.26-2.4 1.3-4 3.58-5.4 5.8-1.3 2.2-2.4 4.37-3.9 5.57-2.4 2-3.82 4.2-4.9 6.4a46.95 46.95 0 0 0-1.4 3.34c-.5 1.1-.9 2.3-1.5 3.4-2.34 4.9-4.16 10.1-5.45 15.5a75.37 75.37 0 0 0-1.2 6.1 289.6 289.6 0 0 0-2.1 5.1c-1.9 4-2.3 9.3-4.6 13.2-.33.6-1.05 3.6-1.5 6.7-.2 1.6-.34 3.2-.4 4.6 0 1.3 0 2.4.1 3 .6 3 .4 5.4.1 7.7-.22 2.4-.6 4.7-.22 7.4.38 3 .9 6 1.5 9v.1l2.27 6.3c.96 2.6 1.26 4.1 1.57 5.2.3 1.1.2 2 2.3 7.4l1.4 3.2c.4.9.9 1.7 1.35 2.6a44.72 44.72 0 0 0 1.4 2.6l1.3 1.7.6.8 1.3 1.9c.86 1.2 2.03 2.8 3.45 4.5 2.8 3.4 6.5 7.3 9.3 10l1.03 1 1.1 2.1c.6 1 1.1 2.1 1.7 3.1l1.7 2.6 1.4 2.1c.4.6.8 1.1 1.1 1.5l1.3 1.8c.54.9.7 1.3 1.42 2.4l2.37 3.4 1.6 2.3 1.74 2.2 1.9 1.8 1 .9 1.02.8a168.95 168.95 0 0 0 4.16 3.2c2.96 1.9 5.8 3.7 8.9 5 .2.7.2 1.3.8 1.8 1.4 1.1 2.97 1.9 4.47 2.7 1.5.9 3 1.7 4.6 2.4 1.6.7 3.2 1.5 4.8 2.1l4.9 1.7a88.68 88.68 0 0 0 9 2.2l-.1.1c-.6.3-.3.6-.2.9-1.7.3-3.3.6-4.7 1-.8.2-.3.7-.4 1 3-.1 6-.1 8.9 0 2.1.2 4.1.4 6.1.7-2.1.1-4.3.2-6.2.4-.6.1-.6.4-.9.7 0 0 1.5.1 3.4.3l2.8.3c8 .6 16.1 1.7 24.4 2.4l4.2-.3c1-.1 2.9.1 4.9.2s4.1.2 5.7.3c.7 0 1.8.1 3.1.1l4.4.1c7.1-.4 14.2-1.5 21.1-2.8 4.5-1.1 10.2-2.7 17.3-4.9a804.77 804.77 0 0 0 11.2-2.32l17.5-3.9c4.2-.9 6.8-1.5 8-1.7l2.4-.6a403.18 403.18 0 0 0 16.4-6.3c3-.6 6.1-1.3 9.1-2.1 4.1-1.6 8.1-3.3 12-5.4a86.06 86.06 0 0 0 10.3-7.67 111.36 111.36 0 0 0 6.5-4 141.48 141.48 0 0 0 4.1-3.53 199.42 199.42 0 0 0 5.8-7.16l3.8-2.3 1.6-1.7a321.44 321.44 0 0 0 4.6-6.8l3.1-1.5c5.1-6.06 9.1-12.9 14.9-18.3 1.2-2.9 3-5.9 4.8-9.1l2.9-4.7c1-1.55 2-3.1 2.8-4.6l2-3.24c.6-1.1 1.2-2.1 1.7-3.2 1.1-2.1 2-4.4 2.9-7.1 1.4-4.7 3.8-11.2 6.1-15.1l.2-2.4.1-2.5c.1-1.6.2-3.2.1-4.8l2-4.8.6-4.1c0-2-.2-4-.4-6l1.1.1c.2-1.6.3-3.24.4-4.9 0-3-.4-6.04-.7-9l1-2.2z"/><path d="M216.34 141.8c-1.4.9-2.43.8-2.77.72l-.23.12a56.77 56.77 0 0 0-1.13 1.85l-1.3-.5-1.2.6-.7 1.4-.9-2.5c-.2-.5-.3-1-1.1-.2-.9.8-1.3-.3-1.4-1.3-1.5 2-.9-1.5-2.3-.3-1.1 1-.6-1.5-1.7-1.2-.9.2-1.7-.5-2.5-.9l-1.4.4v-1l-.7-.4-.5.3a38.66 38.66 0 0 0-.4-3.1c-.2-1.2-.3-2.1-.4-2.4l-.3-.7c-.5-.7-1.1-1.3-1.6-1.9-.6-.6-1.2-1.2-1.8-1.7v-.2c.5.1.9.4 1.4.6l1.2-.6v1l.6.3.9-.6v1.1l.7.3 1.1-.5.1 1c.3.1.6.3.8.5.6-.3 1.4-.7 1.5-.6.2.1.5.5.9 1.3a.9.9 0 0 1 .2.1c.5.5 1.1.8 1.7 1.1l.4-.1c.7-.2.7-.3 1.1-.1.4.2.4 1 .7 1.2l.1.1.2.1c.9-1.1.5.6.9.3 1.1-.9 1 0 1.1.8 0 .4.5.4.8.4 2.7-.1 3 .1 4.5 2 .2.2.4.4.5.3 1.2-1.1 1.6-.1 2.3.1l.7.3.9-.4c.9-.3 1.2-.2 1.9.5h-.1a10.38 10.38 0 0 1-2.1 1.8zm-15.03 8.96c-.6.08-1.1.08-1.3.84-.2.65-.8 1-1.9.22l.3 2.22-1-.52-.3.3.1 1.3-.6-.94a5.86 5.86 0 0 1-.4.25l-.3 1.28-.8-.7a7.1 7.1 0 0 0-.5.3v.5l-.6.1-.4.4v.8l-1.6.5-.7.5-.1.9-.8-.2h-.1l.3-.5c0-.4-.1-.9-.1-1.1 0-.5.9-1.5 1.4-2l1.3-1.3c.9-1.5 1.7-3.1 2.4-4.8v-.1l1 .4a.63.63 0 0 1 .4.2l.4.2c.7.1 1.8-.4 2-.3.2.1.5.2.7.3.1 0 .3.3.5.5l.4.5c.7-1.3 1.1-.9 1.7-.3l.3.2c-.3.4-.7.6-1.2.6zM183 163.5l-.65.5.26 1.55-1.5-.45c-.4.43-.9.82-1.6.86-1.2.1.1 3.16-2.1 1.8.5 1.63-.3 1.66-1.5 1.3-.4-.1-.3 1.54-.7 1.36-.1-.05-.2-.07-.3-.1l.1.28c-.2.1-.5.18-.8.13v-.02h-.1c-.4-.1-.5-.7-.5-.9h-.1l-1 .8.2-1.1-.4-.2-.8.7.2-.9-.2-.1-.7.9.3-1h-.1l-.8 1.1.4-1.2c-.3.2-1.1 1.2-.7-.3-.7 1.2-.9.9-1 .5-.1-.3-.1-.6-.5-.2-.3.3-.5.2-.2-1l-1.1 1.7.2-1a.52.52 0 0 1-.1 0l-.7 1 .5-1a.77.77 0 0 1-.1-.1l-.6.7.4-1a.9.9 0 0 0-.1-.1l-.2.3-.1-.4h-.2l-.4.5-.1-.2c.4-1.4 1.6-2.8 2.6-4.2l.4-2.2 1.4-.2.9-1.2V159c.1.1.1.63.1 1.14 1.1-2.26.3 1.1 1.2-.4.7-1.24.1 1.22.8.6.6-.5.9-.1 1.3.02l.8-.8-.2 1 .4.1.6-.8-.1.94.4.15.6-.66v.9l.5.2c.4-.4.9-1 1-1 .1 0 .3.4.5 1a.28.28 0 0 1 .1.1c.3.3.6.5 1 .6l.3-.2c.4-.3.4-.5.6-.4.2.1.2.8.3.9l.1.1h.2c.6-1.3.3.4.5 0 .7-1.2.6-.3.6.4 0 .3.3.2.5.1 1-.5 1.47-.7 1.8-.4l.17.5.2.9-.8-.4zm-13.97 11.1c.38-.16.56-.08.7.3l-.7-.3zm-1.16 1.42c-1.33-.25-1.6.72-2.3 1.2-.6.4-1.67.42-1.16 2.07.1.3-.4.7-.7.5-1.5-1.1-.3 1.4-1.2.9-1.5-.9-.8.7-1.1 1-.7.8-1.5 1.6-2.7 1.8-.1 0-.1.1-.2.1l.9-1.2c.1-.2.3-.6.5-.9 0 0-.1 0-.1-.1s.1-.3.1-.4c.2-.2.3-.4.5-.6l.3-.6v-.2c.1 0 .1-.1 0-.1-.1-.1-.2-.1-.3-.2l-.4.5c-.1.2-.1-.1-.1-.2s.1-.3.1-.5l-.3-.2c-.2.2-.5.4-.7.4-.3 0-.1-.6-.1-.8l-.8.8.4-1a12 12 0 0 0-.1-.1c.3-.3.5-.7.2-1.4-.4-1.3 1.2-2.2 2.5-2.6-.8-1.3.1-1.7 1-2.2 0 .3 0 .6.2.3.5-.5.7-.2.9-.1l.7-.9-.3 1 .3.1.6-.8-.2 1 .3.1.6-.7-.2.9c.1 0 .2.1.3.2.4-.5.9-1 .9-1 .1 0 .1.4.2.9a.15.15 0 0 1 .1 0c.2.3.4.4.6.5l.2-.2c.4-.3.4-.5.6-.4.1 0-.1.7 0 .8h.1c.7-1.3.1.4.4 0 .7-1.2.5-.3.3.4-.1.3.1.2.3.1l.7-.4c-.3.7-.5 1.5-1.1 1.4zm-10 8.37l.43-.6c-.1.2-.2.5-.43.5zm-2.83 1.9c-.12.3-.3.6-.48.9.04.3.07.7.02 1.1-.06.3-.3.3-.43.3-.15 0-.37-.2-1 0a1.07 1.07 0 0 1-.4 0l-.55.3-.07.4-1.56 1.6c-.56.6-.57.3-.94.3l-1.46-.3c-.48.5-.78 1.3-.7 2.4-.36-.4-.7-.7-.78-.7a2.94 2.94 0 0 0-1.2.8l.1-1.4c-.3-.2-.5-.4-.6-.5-.2-.3.1-.8.3-1 .1-.2.3-.4.5-.7l.2-2.1a8.16 8.16 0 0 1-.4-2.7v-.4l5.4 2.7.2-.1c-.5-.8-.4-1.3 0-1.7l.3-.3c.7-.6 2-1 2.2-1.8.7-1.2.3-.4 0 .3-.1.3 0 .2.1.1.9-.9 1-.9.8.2 0 .1-.1.3 0 .1.8-1.3.6-.6.7-.5h.1l.4-.6c.4-.5.5-.5.4-.1 0 .2-.1.4-.1.7-.3.2-.5.7-.4 1.1.6 1.6-1 .3-1.2.9zm-5.4-76.7h.67c.6-.1.3-.6 1.5.1 1.3.7 1.9 1.1 2.2 1.5.2.2.2.4.2.7l2.2 1c.8-.1 1.5-.4 1.5-.4l.4 1.3c.2.2.3.5.3.9a3.6 3.6 0 0 1 2 0l-.3.2c.2.3.5.6.7.9.1.2.1.5.2.8-.3-.1-.7-.2-1.1-.3-.1 0-.4.2-.6.3l.2.5.2.3.7 1.1c-.1.7-.5 1-1.1 1.2-.6.2-1.3.2-1.7.9-.4.6-.8 1.2-1.3 1.9 0 .3-.1.7-.2 1.2-.6-.1-1.2-.1-2.1.2.2-.5.5-.9.4-1-1.1-1.3-2.8-1.5-4.4-1.9-.7-.2-1.6.2-2.4 1 0-.4-1.3-.7-.6-1 1.7-.7 0-1-.1-1.5-.2-1.1-.3-2.2.2-3.2.3-.5-.9-.9.5-1.4.4-.2.2-1.3-.5-1.4-1.6-.5.4-1 0-1.5a3.74 3.74 0 0 1-.4-.9 4.12 4.12 0 0 1-.9-.6c-.2-.3-.1-.5 0-.6.1-.2.3-.2.5-.8l.2-.4.1-.6-.3-.3-.4-2.2c-.1-.3-.1-.5 0-.6.2.1.4.4.5.7.3.4.6 1 .9 1.6l2.7 1.8zm19.7 9.7l.05-.1c1-.9 1.6-.7 1.6-.7l.7 1.9s.4 0 .6.1 1.8.1 1.8.1l1.4-.1.7 1s.4.7.5 1.1v.2l1.4.7c.1 0 .2 0 .3.1l.2.1c.3 0 .7-.1 1-.2l-.7.6c-.3.3-.5.5-.7 1a8.55 8.55 0 0 0-.6 1.3 7.95 7.95 0 0 0 0 1.5c-.6-.5-1-1.1-1.7-2.3-.2-.2-.3-.6-.6-.5-.8.3-1.3.2-1.6-.1-.4-.3-.6-.7-.9-1l-.7-.6a7.96 7.96 0 0 1-1.1-.1c-1.1-.1-1.4-.4-2-1.6-.4-.8-.4-1.4-.6-1.9l-.6-.7.6-.5zm-12 59.7l.1-.3.26-.2-.35.4zm-3.46 4.1l-.03-.1h.04l-.1.1zm-7.35-.2a6.87 6.87 0 0 0-.2.6c-.04.1-.16.2-.3.4.14-.5.34-.8.5-1zm5.57-54l-.03.8-.65 1.8c-.34 1-.7 2.3-.9 3.2-.44 1.7-.52 1.4-.94 2-.23.3-1 1.1-1.63 1.8a11.27 11.27 0 0 0-.16 1.7c-1.3-.7-.9-1.2 0-1.9.4-.3-1-1.2-.7-1.4l.3-.2c-.3-.2-.6-.4-.6-.6-.1-.2.5-.2.8-.4a.4.4 0 0 0 .2-.3c-.1-.2-.1-.5-.1-.7 0 0-.4-.6-.5-1-.1-.2.3-.2.5-.5a8.08 8.08 0 0 1-.1-1.1c0-.6-.4-.7-.5-.9l-.5-.5s-.2-.8-.1-.9l.9-.5c-.3-.6-1-1.3-.5-1.7.9-.8.5-1.5.4-2.2 0 .1.1.1.1.1l1.5.9 1.8.2c.7.1 1.1.2 1.6.5l-.7 1.1zm21 3.7c-1.24-.3-2.56-.6-3.44-1.6-.4-.5-1.38.4-1.36-1.1 0-.5-1.25-.8-1.73-.3-1.28 1.2-.9-.8-1.62-.8a4.72 4.72 0 0 1-1.12-.1c-.17.1-.4.2-.63.3.27-1.1.64-2.1 1.07-3.2.22-.5.45-1 .72-1.5v.1c.7.4 1.7.9 2.8 1.9 1.5 1.3 2 2.4 2 2.8l.2.2c.8.3 1.6.4 2.4.7l.2 1.5.8.6c-.2.1-.4.2-.6.2zm1.76.5a3.03 3.03 0 0 0-.02-.3l1.17.1c-.4.1-1 .8-1.1.1zm14.85 2.3l-.2-.4a1.4 1.4 0 0 1-.2-.2 11.35 11.35 0 0 0-2-1.5l-.3.1v-.8c.2.2.3.4.4.4 1.5.1 2 1.2 2.4 2.3zm-43 45.9c.1.5.1.9.1 1l-.3-.7.3-.4zm-.4-.2c.1 0 0 .1 0 .3l-.3-.7c.1.1.2.4.4.4zm1.6-38.9c-.5-.6-1.6-1.2-.1-1.8 0 .6.1 1.2.2 1.8zm9.7 12.9l-.1-.6c.1.1.2.3.2.5zm-9.6 19c.2-.4 0-.3-.4.2l-.1.1v-.2l-.1-.1c.1-.1.1-.1 0-.1l-1-.8v-.1l1.2-.2c-.2-.8-1.4-1.7.2-2.4-1.4-.7-1.1-1.5-.8-2.2.3-.5.6-.9.1-1.5-.3-.4-.3-.9.3-1.3h.1c.5.3.7.4.7.7v.6l.8.3c.4-.3.8-.7.8-.7l-.1 1.1c0 .1 0 .3-.1.7.3-.4.6-.5.8-.6l.1 1.7-1 2.5s-.7 1.5-1.2 2.1a2.42 2.42 0 0 1-.2.2v.1c-.1 0-.1-.1.2-.7zm-1.4 1l-.1-.1c0-.1.1-.2.1-.3l.3-.1a9.68 9.68 0 0 1-.3.4zm.7-.5l.2-.1c-.3.5-.3.3-.2 0zm4.4-23.2v.2a11.1 11.1 0 0 0-.2 1.5l-.1 1.4h.1c1.1 1.4.9 3 .9 3l-1.9 3.4.1.3c-.5.7.1-.8-.2-.6a1.33 1.33 0 0 1-.4.2 6.47 6.47 0 0 1-.5.7c-.2.2-.2 0-.2-.1s.1-.3 0-.7a.72.72 0 0 1 0-.3 2.23 2.23 0 0 1-.1-.2l-.2.2-.8-.1c-.3-.1-.2-.2-.2-.5 0-.2.1-.7.2-1.2-.1 0-.3.1-.5.2l-.3-.2.6-1.5.1-.9-.3-.4 1.4.6c.7-1-1.3-2.4.7-3.2.5-.3 1-1 1.2-1.6l.5-1.6c.5.3.7.5.8.8zm3.4 20.6l-.5.3a5.67 5.67 0 0 1 .6-.8v.6zm.9-2.2l-.2.2a5.96 5.96 0 0 0 0-.4l.1-.1.4-.2-.2.5zm-2.7-29.8l.9-1.3c-.3 1-.5 2.1-.6 3.2-.2 1.2-1.8 2.8-1.5 3.5.2.3.3.6.3.9-.2.1-.2 0-.2-.1s.1-.4-.1-.7a.68.68 0 0 1 0-.3 3.2 3.2 0 0 1-.2-.3c.2-1.8.6-3.2 1.7-5zm11.2 17.2l-.1 1.2-2.4 2.5-1.1 1.6-.4 2.2v-.1c0-.8-1.6 2.1-.9-.3-.8 1.3-.8.8-.7-.2.1-.4-.7.7-.7.4l.1-.3c-.1.2-.3.4-.4.4 0 0 .2-.5.3-.9.1-.1.1-.2.1-.3-.1 0-.1 0-.2-.1 0 0-.3.3-.5.3 0 0 .1-.3.1-.5-.1 0-.1-.1-.2-.1 0-.2-.2-1.5-.1-2.4 0-.3.4-.4.7-.9a42.8 42.8 0 0 1 .3-2.4c.2-1.3 0-1.6-.2-1.9l.1-.1c1.2-1.3 1.3-.1 1.9-.1l.3.1.1-.1c.8-1.1 1.1-1 1.1-1l.3 1.6s.3-.1.4 0c.2 0 1.1-.3 1.1-.3l.9-.4.4.7s.2.5.3.8zm7.1-11.5l.4 2.9-1.5.4c-.1.3-.3.5-.4.8l.2 1.8-.9-.7c-.2.2-.3.5-.5.7-.1-.1-.3-.2-.4-.5-.2-.8-1.8 2-1.3-.4-.9 1.3-1 .8-.9-.3 0-.4-.9.7-.8.3v-.3c-.2.2-.4.4-.5.4-.1 0 .1-.5.1-.9v-.3c-.1 0-.2 0-.3-.1 0 0-.4.3-.6.3-.1 0 0-.4 0-.6a2.15 2.15 0 0 1-.5-.2c-.3-.1-.5.1-.6.3l-.4.3s-.4 0-.5-.1l.1-1c-.4.1-1 .6-1 .1 0-1.2-.6-.8-.9-1-.3-.2-.4-1-1.4.3.1-.2.2-.5.3-.7 1.4-1.7 1.1-3.6 1.6-5.3.4-1.6 1.5-3.2.2-4.9-.2-.4.2-1.8.5-1.9 1.3-.4 1-1.2.8-1.9 1.3.6 2 1 2.4 1.4.2.2.2.4.4.7l2.9 1.1c.9-.1 1.7-.3 1.7-.3l.8 1.4c.2.2.4.5.5.9 2.4-.6 4.1.5 6 1.3l-.2.2c-.9.8-1.6 1.4-2 2.8-.3 1.2-1.2 2.4-2.8 2.5zm-24.9-23l.4-.1a6.3 6.3 0 0 0-.5.6c0-.3.1-.5.2-.6zm7.3 60.8v-.2c.2-.2.1 0 0 .1zm3.6.5l-.2-.1c.1-.1.1-.1.2-.1s.1 0 .1.1zm29.3-32.5c-.1.6-.3 1.4-.5 2-.3.8-.1.6-.7 1.6-.4.8-.6.8-1.1 1.5v-.5l-.2-.1-.8.9.2-1.1-.1-.1-.8 1.1.3-1.3c-.4.1-1.2 1.2-1.1-.4-.7 1.2-1.1.9-1.3.5-.2-.3-.2-.7-.7-.3-.4.3-.7.2-.5-1.1l-1.1 1.7.1-1.1a.85.85 0 0 1-.2 0l-.6 1 .4-1.03a1.58 1.58 0 0 1-.2-.13l-.7.7.3-1a1.8 1.8 0 0 0-.2-.2l-.2.24-.2-.38h-.2l-.4.5-.5-.8-.4-.16-1 1v-1l.8-.3 1.4-1.8c.1-1.1.3-2.5.5-2.8.2-.2 1.1-1.1 2.6-2.2.1-.1.2-.2.3-.4 1.1-1.1 2.1-2.4 3-3.7l.1-.3c.5.3 1 .6 1.5.8.2.07.5.1.7.2a5.33 5.33 0 0 0 .1-.03c1.1-.9 1.9-.65 1.9-.65.4.7.8 1.34 1.1 2.04 0 0 .5 0 .8.2.2 0 .7.1 1.2.2l1 .1h.3c-.4.55-.8 1-1.2 1.5-.7 1.7-1.6 3.34-2.6 5zm40.1-12.4c.3-.2.6-.3.8-.5.1-.1.2-.4.3-.7l-.3-.2a.66.66 0 0 0-.2-.1l-2.2-.8-.6.5c-.2.2-.6-.3-.8-.5a2.4 2.4 0 0 1-.1-.2l-.5-1.3-.1.6-1.5-.6a6.78 6.78 0 0 1-2.5-.3c-1.5-.4-1.9-1.3-2.1-1.6l-.2-.1-2 .3-.4-1.3-1.1-.5-1.5.3-.2-1.1-.4-.2-1.2.6.1-1.2-.2-.1-1.3.8.3-1.3c-.8-.1-2 .7-2-1-1.1 1-1.8.5-2.2-.1-.4-.5-.6-.9-1.3-.7-.6.2-1.2-.2-1.1-1.5l-1.7 1.4v-1a2.5 2.5 0 0 1-.4-.1l-1 .7.5-1a5.14 5.14 0 0 1-.4-.2l-1.2.4.3-1.1a6 6 0 0 0-.5-.3l-.4.2-.3-.5c-.1-.1-.3-.1-.4-.2l-.6.3-1-1.1-.8-.4-1.7.6-.1-1.5-.2-.1c-.3-.1-.5-.3-.7-.4l-.9.1-.3-.3c-.2.1-.5.2-.8.5 0-.5-.2-.8-.3-1.1l-.7.3.27-.7-1-.4-.2-.1-1-.5-.7.6v-1l-.7-.4-1.3 1-.26-1.5c-.56-.2-1.1-.4-1.4-1-.54-1-2.66 1.52-2.4-1-1.2 1.1-1.53.45-1.7-.8-.1-.45-1.4.43-1.44 0 0-.1 0-.2-.1-.3-.2.2-.5.35-.7.3-.15 0 0-.55.1-.9a.4.4 0 0 0-.15-.3 3.02 3.02 0 0 1-.4-.2l.74-.58-2.1.3c0-.2 0-.4-.1-.5a7.75 7.75 0 0 1-.9-.5c-.6-.2-.8 0-1 .1l-.6.3s-.7-.14-.8-.3v-1c-.7 0-1.55.3-1.7-.3-.3-1.3-1.2-1.1-1.9-1.5-.6-.4-1-1.3-2.25-.16-.2.26-.8-.1-.7-.4.4-1.9-1.37.3-1.2-.7.2-1.7-.9-.4-1.4-.5-1-.4-2-.7-2.6-1.7-.27-.5-1.2.3-1-1.1.1-.4-.97-.7-1.4-.2-1.3 1.2-.7-.8-1.3-.7a3.57 3.57 0 0 1-1-.1 4.07 4.07 0 0 1-1 .5c-.36.1-.4-.1-.5-.3-.1-.15 0-.4-.4-.9a1 1 0 0 1-.2-.4l-.5-.35-.4.1-2.1-.7c-.8-.2-.6-.3-.7-.7-.1-.2-.3-.8-.5-1.4-.6-.1-1.2-.1-1.8.2 0-1.1-.6-2.2-1.2-3.3-.4-.7-1.84-1.1-3.5-1l-1.7.2c-.16.5 2.16.5.7 1.25-.4.2-.6.6-.6.9.1.5.15.96.2 1.4l.1.16c-.6.5-.94 1.7-.9 3l.04 1.7c.3.2.6-2.15 1.1-.6 0 .1 0 .1.1.2l-.7 1c-.1 1.2-.2 2.3-.2 3.5l.3.6c.4.4.7-.1.7 1.3s-.04 2.2-.3 2.6c-.1.2-.3.3-.5.5.1.8.1 1.6.17 2.4.5.6 1 1.1 1 1.1l-1 1.1c-.1.2-.3.4-.6.7 1.9 2 .5 4.3 1 6.4.1.5-1.22 1.3-.8 1.6 1.7 1 .7 2.2.9 3.3l.1.6h.08c1.3.5 1.4 1.2 1.4 1.2l-1.4 1.6s.2.4.2.7c0 .3.7 1.7.7 1.7l.7 1.3-.6 1.2s-.4.7-.7 1a1.45 1.45 0 0 1-.2.1v2.2c.1.47.9 1.1.9 1.24 0 .1-.1.4-.1.5s-.9.7-.9.7c2.8.6-1.7 1.6.7 2.3-.4.5-1.6 1-.56 1.5 1.27.6-1.6 1.1.3 1.7 1.1.4.3 1-.6 1.5 2.5.4-1 1.2.7 1.8 1.4.5-1.1.92-.33 1.7.6.6.3 1.5.3 2.2l1 .9-1 .4v.7l1 .6-1 .4v.7l.8.9-.9.6-.1.95c.5.4 1.14 1 1.13 1.2 0 .1-.3.6-.9 1.3a.95.95 0 0 1 0 .3c-.2.7-.3 1.34-.4 2.04l.3.3c.4.55.55.5.5.94 0 .4-.75.63-.8 1h-.1v.3c1.4.4-.3.7.1.9 1.3.6.4.9-.3 1.3-.3.14-.2.6-.1.9 1 2.5 1 2.9-.3 4.9-.1.2-.3.5-.1.6 1.5.8.7 1.5.6 2.2v.8c.2.2.4.5.6.8.6.8.54 1.1 0 2.1-.3.6-.7.93-1 1.3l-.3 2.6c.1.3.4.6.4.9.1.4.1.3 0 .8s-.2.3-.4 1.1c0 .3-.1.4-.1.4.4.9 1.2 1.78 2.3 2.48.2.1.66.1 1 .2 0-.3 0-.7.1-1 .1-.2.3-.4.4-.6.2.2.4.5.7.7l-.5.9c-.4.7 0 2.2 1.1 3.4l1.1 1.3c.5-.2-.8-2.1.7-1.4.4.2.8.2 1 0 .3-.4.7-.7 1.1-1l.5-1.57c.4-.9 1-1.3 2.2-1.5l2-.1c1-.6 2.1-1.2 3.04-1.9.2-.2.3-.45.3-.6.2-.6-.4-.5.8-1.4 1.2-.9 1.9-1.3 2.4-1.4.2-.1.46 0 .7.1l1.97-1.7c.2-.7.3-1.5.3-1.5l1.5.2c.2-.1.5-.1.9.1.5-2.8 3.2-3.2 4.73-4.88.4-.4 1.86.1 1.8-.4-.2-2 1.4-1.96 2.15-2.8.1-.2.3-.3.4-.47v-.1c-.35-1.3.15-1.83.15-1.83l2.1.1s.2-.4.44-.6c.26-.2 1-1.7 1-1.7l.66-1.4 1.3-.3s.8-.1 1.3 0h.2l1.3-1c.1-.1.1-.2.3-.2l.2-.2c.3-.4.3-1.4.4-1.5.1-.1.35-.2.5-.3.1-.1 1.1.3 1.1.3-1.3-2.6 2.3.3 1.3-2 .7 0 1.8.6 1.6-.5-.3-1.4 1.8.6 1.2-1.3-.4-1.12.7-.9 1.57-.5-1.2-2.2 1.5.06 1-1.7-.43-1.4 1.47.3 1.6-.74.1-.9 1-1.2 1.6-1.6l.2-1.3.9.6.6-.4-.1-1.1 1 .5.6-.4.2-1.2 1 .4.9-.5c.1-.66.2-1.56.3-1.6.13-.1.74-.1 1.7-.1l.2-.1c.72-.2 1.35-.5 1.96-.9l.1-.4c.2-.6.1-.7.4-1 .4-.2 1 .22 1.4.1h.1l.3-.2c-.5-1.4.8-.2.8-.7-.2-1.45.6-.9 1.3-.5.4.16.6-.2.8-.5 1.5-2.34 1.9-2.5 4.35-2.7.2 0 .6 0 .6-.23-.2-1.6.9-1.4 1.54-1.7l.7-.4.3-1c.4-1 .7-1.1 1.8-1.2.7-.1 1.27.1 1.8.1l.4-.24c.07.3.1.6.2 1 0 .2.4.5.6.8.2-.2.47-.45.7-.6.2-.1.5-.1.7-.2 0 .3-.1.6 0 1 0 .1.25.4.4.6l.4-.16a.83.83 0 0 0 .26-.1l1.9-1.65a1.96 1.96 0 0 0-.1-.4l-1-2.5c.6-.37 1.3-.9 1.9-1.57.1-.13.2-.6.3-.9l-.8-.3c-.2-.1-.3-.3-.5-.5z"/></g><path d="M-29-57h400v400H-29z"/></g></svg>