<svg xmlns="http://www.w3.org/2000/svg" viewBox="0 0 320 293"><g fill="none" fill-rule="evenodd"><g fill="#000"><path d="M312.12 115.48c-.1 1.8-.12 3.6-.2 5.4-.14 1.8-.18 3.63-.45 5.42-.26 1.8-.5 3.6-1.03 5.34-.25.87-.52 1.74-.83 2.6-.3.84-.7 1.67-1.1 2.5 0 5.64-2.7 12.85-5.6 18.56-.8 1.66-1.6 3.12-2.3 4.55l.1-.63c.4-6.3.4-12.65.3-19l-.3-2.73c-.5-4.6-.6-4.2-.7-8.1-.1-3.9.5-6.7.3-10.2v-.7l-.2-2.9c-1.6-2.6-.4-7-1.1-8.8-2-4.8-1.8-7.8-2.1-12.1-.2-1.9-1.4-5.5-2.6-8-2.3-5.3-4.6-9.1-6.7-12.3-2.1-3.2-3.9-5.7-5.8-8.2-3.7-4.9-7.2-9.5-13.6-17.1-1.1-1.4-3-3.6-3.7-4.1-5-3.2-9.6-8.9-14.5-13.4a165.47 165.47 0 0 0-5.3-4.7c-1.5-1-3.4-2.2-5.5-3.5-1.5-.9-2.8-1.6-4-2.3l-1.8-1c-.5-.4-1.1-.7-1.7-1a106.2 106.2 0 0 1-3.8-2.3l-5-2.9c-1.2-.8-2.4-1.3-3.5-1.9l-.2-.1h.2c6.3 1.5 12.6 3.2 18.7 5.2 5.4 1.5 12.9 3.8 22.2 8.4 6.5 3.2 11 6.3 14.2 8.7 1.6 1.2 2.8 2.3 3.7 3.1 1 .8 1.6 1.4 2 1.9l1.8 1.4c4.4 3.2 8.5 6.7 12.3 10.6.7 1.2 1.5 2.4 2.2 3.6l2 3.7c2.1 3.2 4.1 6.5 5.8 10 .5.8.9 1.6 1.4 2.5l1.3 2.5c.8 1.7 1.7 3.4 2.4 5.2l.6 3.3c.2 1.1.3 2.2.4 3.4.4 1.5.7 3.1 1 4.7.5 1.3.8 2.7 1.2 4l.6 2 .5 2c-.2 1.4-.4 2.7-.8 4.1l.1 2.1c.3 1.2.5 2.4.7 3.7.3 1.2.5 2.5.6 3.8l-1.4 2.9zm-22.3 74.98l-.36 2.6c-.07.43-.12.87-.2 1.3l-.27 1.3-1.1-.46-1.8 3.8c-1 2.43-1.9 4.94-3.1 7.3l-2 1.03c-.9 1.4-2 2.7-2.9 4.04-.4.66-.7 1.33-1.1 1.96l-3 3.2c-.9 1.1-1.9 2.17-2.8 3.25-.7 1.12-1.5 2.18-2.2 3.26l-2.4 2.28-2.5 2.2c-1.6 1.48-3.4 2.85-5.1 4.26-1 .87-2 1.68-3 2.5-1 .83-2 1.68-3 2.47-1.4 1.3-2.7 2.66-4 3.96l-4.2 3.9-6.4 3-1.7 1.2c-2 1.4-4.1 2.8-6.2 4.1l-5.5 4.2-3.4 2a39.6 39.6 0 0 0-3.8 3.4c-2.2.9-4.5 2-6.8 3.1-1.4 1.1-2.8 2.1-4.1 3.1l-1.2-.2a190.88 190.88 0 0 1-8.5 4.5l-1.9.9c-3 1.4-6 2.8-9.1 3.9a66.9 66.9 0 0 1-2.4 1.8 72.02 72.02 0 0 1-4 .5c-2.2.7-4.4 1.3-6.6 2-.9.5-1.9.9-2.8 1.4-1 .5-1.9 1-2.9 1.4-2.7.2-5.4.2-8.1.1-5.2.8-10.4 1.2-15 .9-4.3-.2-8.1.1-12 .3-3.8 0-7.5-.2-11-2.1 2-.1 3.7-.2 4.3-.2 1.5 0 3.7.1 5.2.1.7 0 2.5.2 4.1.4l3 .3c2.5-1.6 6.5-1.4 10.6-1.5 2 0 4.1 0 5.9-.2 1.8-.3 3.5-.8 4.8-1.7l3.8-.3c1.3-.1 2.5-.3 3.8-.5 1.3-.2 2.5-.5 3.7-.8 1.2-.4 2.3-.7 3.3-1.4 2.5-1.4 5.1-1.8 7.7-2.4 2.6-.6 5.3-1.4 7.5-3.3a9.06 9.06 0 0 1 1.2-.8c.5-.3 1-.6 1.5-.8 1.1-.6 2.3-1.1 3.5-1.5 1.3-.5 2.6-.9 3.9-1.3a81.67 81.67 0 0 1 3.7-1.2c.5-.9 1.5-1.7 2.7-2.3a21.8 21.8 0 0 1 1.9-1 65.55 65.55 0 0 1 2.1-1c1.4-.6 3-1.3 4.4-2 .7-.4 1.4-.7 2-1.2a10.57 10.57 0 0 0 1.6-1.5c1.5-1.8 3.6-2.8 6.1-4 2.4-1.2 5.2-2.6 7.9-5 2.1-2 4.9-4.2 7.8-6.4l4.3-3.5c1.4-1.2 2.9-2.3 4.2-3.5 1.9-2.1 3.7-4.1 5.5-6.3l3.6-2c1.5-1.5 3.1-2.9 4.5-4.4l2.9-4.4 3.8-2.6 4.9-5.4 4.3-6.4a193.63 193.63 0 0 0 4.4-4c1-1.2 1.9-2.5 2.9-3.7a135.27 135.27 0 0 0 2.8-3.7 183.65 183.65 0 0 0 2.1-3.9l-.2.7-.6 1.6zm-222.45 79.5c-1.2-.35-2.38-.68-3.35-1.03-.96-.35-1.7-.68-2.07-.95a40.35 40.35 0 0 0-1.3-.94c-1.44-.38-3.1-1-4.6-1.84-1.38-.8-1.58-1.5-2.27-2.38-.27-.34-.97-.86-1.83-1.52-1.6-1.08-3.2-2.2-4.66-3.4l-.8-.55c-.5-.34-1.2-.8-1.9-1.4a52.16 52.16 0 0 1-2.4-1.92 42.55 42.55 0 0 1-2.4-2.08c-1.1-.96-1-1.5-2.5-3.26a87.03 87.03 0 0 1-6.4-7.5c-3.4-4.5-4-5-4.9-6-.5-.6-1.2-1.4-1.7-2.1l-1-1.3-1.9-3c-.9-1.6-1.9-3.3-2.1-3.8-.3-.5-.7-2.5-1.3-4.6-2.6-5-5.4-10.7-6-14.4-1.4-7.8-3.3-14.8-4-22.1-.3-3.3-.4-6.8-.4-10.1-.1-1.7-.1-3.4-.2-5-.1-.8-.1-1.6-.2-2.4a24.16 24.16 0 0 0-.4-2.3c-.1-.5-.1-1.6 0-2.8 2.6 5.9 5.4 11.7 8 17.6 4 9.1 7.8 18.3 12 27.2 2.1 4.4 3.8 11.5 5.4 13.7 2.9 4.1 5.4 8.5 7.9 13 2.5 4.4 5.2 8.9 8.3 13l1.7 2.2 1.8 2.1.2.2c1 .8 2.1 1.6 3.1 2.5l2.8 2.4c.8.7 1.5 1.4 2 1.8l.8.7c3.2 3.7 6.6 7.3 10.3 10.7l1.7 1.1c1 .7 2.3 1.6 3.5 2.3l2.9 1.8c-2.2-.6-4.3-1.4-6.6-2.5-1.1-.5-3.7-1-6.1-1.7zM9.57 121.2l.5-3.1c.2-1.03.5-2.04.83-3a9.1 9.1 0 0 1 1.43-2.67c.2-.25.5-1 .85-2 .37-1 .85-2.25 1.28-3.54.9-2.6 1.85-5.3 2-6.3.32-2.7 1.42-4.6 2.58-6.3.83-1.2 1.7-2.3 2.5-3.5a491.3 491.3 0 0 1-3.24 9.5c-1.6 5.8-2.8 10.7-2.8 10.7-1.38 2.8-2.75 5.6-4.08 8.5-.82 2-1.65 3.9-2.6 5.7l.24-1.2c.23-1 .32-2 .5-3zm95.96-94.88c5.95-2.36 11.84-4.72 17.44-7.22.6.36 1.02.76 1.7.6 12.3-2.7 24.42-5.47 37.16-6.87 3.53-.48 6.6-.9 8.8-1.56 2.2-.65 3.56-1.45 3.64-2.28.04-.4.07-.9.08-1.5 1.3-.2 2.48-.5 3.14-.5 1.6-.1 6.4.4 9 1l2.5.5c1.1.2 2.3.6 3.7.9 3 .5 5.9 1.3 8.8 2l4.3 1.4c.7.2 1.4.4 2.1.7l2.1.8c5 1.5 11.9 4.2 20.2 9.4 2.8 1.9 5.3 3.6 7.3 5.3a82.42 82.42 0 0 1 5.1 4.5c2.7 2.6 4.3 4.4 5.1 5.2l1.5 1.5c4 3.4 7.9 7 11.9 10.6a479.62 479.62 0 0 1 4.8 6.8c2.5 2.8 5 5.6 7.4 8.6 2.5 2.6 4.9 5.4 7.2 8.2a75.03 75.03 0 0 1 2.5 6 67.83 67.83 0 0 1 2 4c1.4 2.2 2.7 4.5 3.9 6.9v4c.2.6.4 1.3.5 1.9a100.78 100.78 0 0 1 2.8 6.7l-.8 3.1c.6 3.4 1.3 6.8 1.8 10.3.4 3.4.5 7-.1 10.5 1.6 5.2 1.5 12.7 1.2 18.9-.2 4.8-.5 8.2-.2 13.3.2 2.2.1 4.8-.2 7.3-.4 2.5-1 5-1.9 6.7v.4c-1.4 2-2.9 3.8-4.4 5a110.48 110.48 0 0 1-1.6 4.2c-.6 1.4-1.1 2.7-1.8 4.1-1.3 1.1-2.4 2.2-3.7 3.3l-2.3 3c-.9 1.7-1.7 3.4-2.6 5l-.9-.7c-1 1.2-1.9 2.4-2.9 3.5l-2.4 3.5-2.5 3.4-2.2.8-1.8 2-1.9 1.9-1.4 1.9-3.5 3.2-3.3 3.2-2.6 3.3-5.4 4.5c-1.8 1.5-3.6 2.9-5.5 4.3-2.1 1.7-4.2 3.5-6.4 5.1l-4.3 4.1-4.5 3.9-3.3 1.5-3.4 1.3-1.7 1.1-3.2 2-3.4 1.8c-2 1.3-4 2.7-6.1 3.9l-3.7 1.6a85.46 85.46 0 0 0-4.4 2.9c-2.5.6-4.9 1.4-7.4 2.3l-4.8 2.4-1.2-.4c-.8.3-1.6.6-2.4.8l-2.4.8-4.8 1.5-2.1.6-5 1.2-2.5.6c-.8.2-1.7.3-2.5.5l-2.8 1.4c-1.4 0-2.8 0-4.2-.1l-7.1.9-1.6.5-1.6.5c-1.1.4-2.2.7-3.2 1a181.34 181.34 0 0 1-8.5-1c-5.6.1-11.1 0-16-.7-4.5-.6-8.7-.3-12.8-.2-1.9 0-3.9 0-5.8-.2a35.4 35.4 0 0 1-.8-.3c-.9-.4-1.6-.7-2-1l-1.2-.9c-1.4-.4-3-.8-4.5-1.7-1.3-.7-1.5-1.4-2.3-2.2-.3-.3-1-.8-1.8-1.4-.8-.5-1.6-.9-2.4-1.4a100.98 100.98 0 0 1-2-1.2s-1.2-.7-2.7-1.7l-2.5-1.7-2.4-1.7c-1.1-.8-1.1-1.3-2.6-2.9-1.2-1-2.4-2-3.5-3.1-1.2-1-2.3-2.2-3.3-3.3-1-.9-1.7-1.7-2.3-2.3a30.88 30.88 0 0 0-1.4-1.4c-.8-.7-1.2-1-1.7-1.4l-1.9-1.7c-.3-.3-.6-.5-.8-.7l-.4-.3-2.1-2.6c-1.1-1.4-2.2-2.9-2.4-3.4-.3-.4-.9-2.2-1.7-4.3-3.1-4.5-6.5-9.5-7.7-12.9-2.5-7.2-5.9-13.5-8.8-20.1-2.6-5.9-5-12.8-8.8-17.3-.8-.9-3.2-6.4-3.2-7.1-.2-5-4.9-8.7-5.3-12.1-.6-5.6-3.4-8.3-4.7-12.5l-.5-1.8v-.4c.1-2.4.2-4.7 1.1-6.2 3-5.1 2.4-9.2 3.8-13.7 2.9-9.5 6.4-19.4 10.1-28.1 1.7-4 2.2-9 4.7-12.6.4-.5 1.3-3.3 2.1-6.1s1.7-5.5 1.8-6.5c.4-2.6 1.7-4.4 3.2-5.8 1.5-1.5 3.2-2.6 4.9-4.5 1.8-2 3.9-3.9 5.9-5.8h.1a86.48 86.48 0 0 1 2-2.1c.7-.8 1.5-1.6 2.4-2.5 1.8-1.8 3-2.6 3.9-3.2.9-.6 1.6-.8 6.1-3.8 1.3-.9 2.2-1.4 2.8-1.7l4.6-2.9 2.3-1.9 6.3-3.7 1.4-.9 1.5-.8 3-1.6c1.9-1 3.8-2.1 5.5-2.9 6.5-3.1 5.5-2.6 8-3.3.7-.2 2-.6 3.6-1 1.5-.4 3.3-.9 4.9-1.3zm39.85-17.35c.66-.17 1.32-.3 1.98-.43 1.84-.35 3.64-.66 5.48-.84-1.3.38-2.64.86-3.88 1.33l-2.17.27-6 1.02 2.6-.78 1.9-.57zm25.53-1.34c-.8.18-1.6.4-2.4.57-.9.2-1.9.37-3.1.4a17.73 17.73 0 0 1-4-.23 12.15 12.15 0 0 0-.9-.1c3.5-.4 7-.6 10.6-.64zM315 80.93c-.7-1.87-1.2-3.62-1.85-5.22-.66-1.5-1.18-3.1-1.84-4.6-.6-1.4-1.2-2.9-1.9-4.4-.7-1.4-1.4-3-2.2-4.6-1.6-3.2-3.7-6.9-6.8-11.2-.5-.8-1.3-1.8-2-2.7-.7-.9-1.4-1.6-1.7-1.8-2.6-1.8-5.2-4.1-7.8-6.5-2.6-2.3-5.3-4.9-8.1-6.9-2-1.5-4-2.9-6.1-4.3l-2.8-1.4-3.3-1.5-4.4-2.1c-1.3-.6-2.5-1.2-3.8-1.8-1.3-.6-2.6-1.2-4.1-2-1.6-.7-3.3-1.6-5.5-2.6-5.5-2.5-9.1-4.2-12.9-5.6-7.8-2.5-15.7-4.5-23.7-6.2l-8.1-1c-3.6-.5-2.5-.3-7.2-1.1-4.7-.7-3.5-.8-10.8-1.9l-4.5-.7c-3.9-.2-7.7-.1-11.2.5a29.66 29.66 0 0 0-5.5 1.5h-.3c-.9 0-2.2 0-3.9.2H158c-7.34 1.5-13.9 4.1-18.23 6.7-.6.3-.25.6-.17.9-1.9.5-3.9 1-5.9 1.6-2.16.7-4.34 1.2-6.25 1.8-4.05 1.3-7.68 2.3-11.36 3.5-1.9.6-3.8 1.1-5.7 1.7a249.33 249.33 0 0 1-6.2 1.9c-1.4.4-2.8.8-4.3 1.3 7.2-3.2 14.4-6.3 22.1-8.8 3.2-1.1 5.9-2.1 7.9-3.2 1.9-1 3-2.1 2.9-2.9-.1-.4-.1-.9-.3-1.7-2.2.4-3.7 1.3-5.4 2.1-.9.4-1.8.8-2.8 1-1.1.3-2.3.5-3.8.6-1.6.1-4.9.7-7.2 1.5-2.1.8-4.2 1.5-6.3 2.2l-6.2 2.5c-.9.4-1.8.9-2.8 1.4l-2.8 1.5-2.8 1.5c-.9.5-1.8 1.1-2.6 1.6a171.9 171.9 0 0 1-5 2.9c-1.6 1-3.2 1.9-4.8 2.8l-2.5 1.4c-.9.5-1.7 1-2.5 1.5a236.16 236.16 0 0 1-5.5 3l-5.9 3.3-1.6 1-1.6 1-3.2 2.2C49 47 41.2 54.2 34.1 62.2c-1.5 1.9-2.82 3.55-3.5 4.54-1.2 1.8-1.04 1.9-1.63 2.83-.3.5-.76 1.2-1.67 2.4-.48.6-1.08 1.3-1.7 2.3l-2.4 3.4a127.3 127.3 0 0 0-4.87 7.3l-1.9 3.1L15 90.7c-1.92 3.4-3.18 5.88-4.1 7.6-.93 1.65-1.5 2.58-2.32 3.97a93 93 0 0 0-6.1 22.3c-.1 1.5-.1 2.9-.1 4.3 0 1.3.1 2.5.2 3.5l.1 1.3.1 1.04.1.8-.2 2.3v2.4c0 .8-.05 1.6-.05 2.4l.1 2.4.58 5.6a176.97 176.97 0 0 0-.9 5.6l-.5 4-.4 4-.1 2-.1 2c0 1.3-.1 2.7-.1 4 0 5.4.3 10.7 1.1 16 .8 5.2 1.1 13 2.3 15.7l.8 1.9.8 1.9c.6 1.3 1 2.5 1.5 3.8 1.1 2.5 2 5.1 3.1 7.6 2 5.1 4.4 10 7.1 14.6 1.1 1.6 2 3.3 3.2 4.9l.2.2c1 .9 2 2 2.9 3l2.6 2.8 2.7 3a106.35 106.35 0 0 0 9.7 12.2l5.3 4.2c1.2.9 4.8 3.4 8.3 5.3 1.8 1 3.5 1.8 4.8 2.4l2.1 1c4.1 1.7 8.3 3.1 12.6 4 3.6 1.2 7.2 2.2 10.8 3l3.8.9 6 1.3c.6.1 1 .2 1.3.3 1.8.2 3.7.4 5.5.5a83.1 83.1 0 0 0 4.4 1.4c3.2 1.4 6.6 2.6 10 3.7 0 0 .4.2 1 .4l2.6.8c2 .6 4.3 1.2 5.7 1.6l1.2.3c5 .9 10 1.3 15.1 1.5a28.4 28.4 0 0 1 3 .1h2.5c2.2 0 4.7-.4 6.9-.7l4.5-.8c1.4-.1 3.5-.3 4.9-.5l4-.2h2.9c2.2-1.9 6-2.3 9.9-2.9 1-.1 2-.3 2.9-.5a34.72 34.72 0 0 0 2.7-.7c1.8-.5 3.2-1.2 4.3-2.2 4.6-1.2 10-2.3 13.4-5.2 2.1-1.7 4.5-2.5 6.9-3.4 2.4-.9 4.8-2 6.6-4.1 2.3-2.6 8.1-5.2 12.2-6.9 1.5-3.9 10-5.4 13.2-9.7 2.6-3.5 8.2-4.2 13-9 4.1-3.9 10.3-8.6 15.3-13.3l2.5-3.1c.9-1.1 1.6-2.1 2.4-3.2 1.2-.7 2.3-1.4 3.4-2.1 1.3-1.5 2.7-3 4-4.7l1.1-2.2.6-1.1.6-1.1 3.3-3c.6-1 1.2-2 1.9-3 .6-1 1.3-2 1.8-3.1l1.4-3.5c.5-1.2.8-2.4 1.2-3.6l1.6-2.4 1.4-2.5a73.67 73.67 0 0 0 2.9-8.6c.4-3.2.6-7.3.7-9.3l.3-.4 2.8-4.2 1.1-2a125 125 0 0 0 8.6-18.2c.3-.9.5-1.9.7-2.8.6-2.3.8-3.4 1-4.4.2-1 .5-1.9 1-3.9.5-1.9 1.2-3.6 1.7-5.2s1.1-3.2 1.4-5c.1-.2.1-.4.2-.7.2-1 .4-1.9.5-2.9-.5-1.5-.2-3.3.2-5 .4-1.7.8-3.2.7-4.2-1-5.4-.1-8.4.5-12.8.3-1.9-.2-5.9-.7-8.7-.9-5.8-2.3-10.3-3.5-14.1z"/><path d="M127.77 125.87l-.08-.1c.4-.22 1.3-.9.7.14-.2.4-.2.7-.1.8l.7.6h.6c-.5 1.3-1.1 2.4-2.1 3.6a.14.14 0 0 1-.1 0c-.2-.6-.4-1.3.2-2 .2-.3-.9-.5.4-.9.4-.1.1-.7-.5-.8-1.7-.3.3-.6 0-1zm10.98-1.44c.12.2.2.48.17.9 2.6-.6 3.63 1.63 5.53 2.3.14.05.23.23.3.44l-.8.82c-.42.4-1.13.8-1.37.7-1.22-.4-1.55.4-1.87 1.1-.4-.3-.8-.6-.8-1.3 0-.4-1 .3-.3-.9.2-.4-.4-.6-.9-.2-1.3 1-.2-.7-.6-.6a1.8 1.8 0 0 1-.6-.1 4.4 4.4 0 0 1-.8.4c-.2 0-.2-.1-.2-.2 0-.2.1-.4.1-.8a.72.72 0 0 1 0-.3 4.2 4.2 0 0 1-.2-.4 53.43 53.43 0 0 0-.3.1l-.4-.3c.6-1.1 1-2.2 1.4-3.4l.4.2c.7-.1 1.4-.3 1.4-.3l.3 1.3zm10.15 5.5l.06-.04c1-.9 1.6-.7 1.6-.7l.63 1.9s.3 0 .6.1c.2.1 1.7.1 1.7.1l1.4-.1.7 1s.4.6.5 1.1v.2l.4.2-.4.3-1 1.6-.9.6c-.2.4-.4.9-.4 1.5a4.88 4.88 0 0 0-1.4.5.8.8 0 0 1-.3-.6c-.1-.9-2.3 1.6-1.4-.7-1.2 1-1.2.5-1-.6.1-.4-1.1.5-1 .1l.1-.3c-.2.2-.5.4-.6.3-.1-.1.2-.5.3-.8v-.3c-.1-.1-.3-.1-.3-.2 0 0-.5.1-.7 0l.3-1c.3-.9.2-2-.5-2.9-.1-.2-.1-.4-.1-.7l.1-1.7c.2.1.4.3.6.4l.5.2zm10.47 4.22c.12.06.28.22.4.28.1.04.18.52.22.82l-1.2-.94c.2 0 .5-.1.5-.1zm2.83 1.43c.23.6.24 1.85 1.05 1.06l.04-.03v.1a1.27 1.27 0 0 0 .3-.1 1.24 1.24 0 0 0 .1 0c.2.2.1 1.1.6.9l-.1.2.4.4c.4-.2.8-.5.8-.5l-.5 1-.4.7c1.6-1 1 .4 1.6.5.1 0-.6 1.2-.3.9 1.3-1.1.8-.1 1.1-.1h.1c.9-.8 1.1-.8 1.1-.8l-.7 1.3h.2c0 .1.7-.2.7-.2l.7-.2-.2.6s-.2.5-.4.7l-.1.2.3.3s.1 0 .1.1a7.67 7.67 0 0 0-2.4.8c-1 .5-1.6 1-2.1 1.4l-1 .9c-.2-.1-.2-.5 0-1.2l-1.4 1.5.2-1a.92.92 0 0 1-.3 0l-.9.9.5-1a1.83 1.83 0 0 1-.3-.2l-.9.6.4-1a2.27 2.27 0 0 0-.3-.2l-.3.2-.1-.4-.3-.1-.5.4-.5-.9-.2-.1.1-.1.6-3.1c.3-.1.7-.3 1-.5l1.1-.4.3-.4.3-.3-2.6-2.1c1.5-2.1.6 2.2 2.1.3zm15.9 5.6l-.9.64.63-.75a.4.4 0 0 1-.13-.02l-.96.66.84-.7a.43.43 0 0 1-.05-.1l-.84.5.7-.8c.1.1.3.3.6.8zm.64.68c.1.08.23.15.34.22-.43.2-.43.02-.34-.22zm1.1.6l.2.1-.8.48.6-.57zm-.47-.2l.12.06c-.1 0-.2 0-.2-.06zm-1.13-.84l.12.17c-.15 0-.2 0-.12-.2zm2.37 1.1c.6-.25.6-.42 1-.3s.4.9.7 1.05l.1.05.3.1c.7-1.23.6.5.9.13.9-1.1.9-.2 1.1.62.1.36.5.33.8.28 2.3-.46 2.8-.4 4 .98a5.68 5.68 0 0 1-1 .96c-1 .8-1.9.7-2.2.6l-.1.1-.7 1.7-1.2-.5-.9.5-.4 1.3-1-.5-.3.2-.1 1.3-.9-.8-.2.1.1 1.5-.9-1c-.4.5-.3 1.8-1.6 1.1a3.9 3.9 0 0 0-.3-.9c0-.2-.3-.5-.5-.8 0 0-.1.1-.2.1s-.2-.2-.3-.3a3.37 3.37 0 0 0-.2-.7l-.1-.3v-.2l-.1-.2-.1-.3c0-.1 0-.1-.1-.1v.7c0 .2-.1 0-.2-.2a7.37 7.37 0 0 1-.1-.5 4.5 4.5 0 0 1-.6-.1 1.62 1.62 0 0 1-.5.2c.2-.6.2-1.1.2-1.5-.1-1.1-.5-1.8-1-2.4-.3-.5-.8-.9-1.4-1.2a4.15 4.15 0 0 0-1-.4 5.2 5.2 0 0 0-.9-.2c.2-.1.3-.1.5-.1l.2-.1h.3a4 4 0 0 1-.1.2l.2-.2c.1 0 .2.1.4.1-.1.2-.1.3.2 0h.3c-.1.2-.3.5 0 .3.6-.4.5 0 .7.1l.3-.1.2.1-.2.2.1.1.3-.2h.1l-.3.3.1.1.5-.3.1.1-.4.5.1.2c.3-.1.5-.3.7-.4a.75.75 0 0 0 .3.1l-.2.5v.1c0 .2.1.4.2.5l.3-.1c.4-.2.5-.3.6-.2.1.1-.4.6-.4.7v.1c1.1-.9-.1.3.3.1 1.1-.8.5-.2 0 .4-.2.2 0 .2.1.1 1.4-.4 1.5-.3.9.8 0 .1-.1.2.1.1 1.3-.9.8-.3 1-.1l.1.1.6-.3c.6-.3.7-.2.5.2-.1.3-.4.6-.5.8l.4.5c.2-.1.4-.2.6-.2.2-.1.1-.1.2 0s-.1.1 0 .3a.56.56 0 0 1 0 .2c.5-.1 1.4-.5 2.4-1.1.1-.1.5-.4.8-.5-.1-.1-.2-.1-.2-.2s.1-.3.2-.4l.7-.3.6-.4.1-.2v-.1l-.4-.6-.6.3c-.2.1-.1-.2 0-.3l.3-.5-.3-.5c-.3 0-.6 0-.9-.1-.3-.2 0-.8.1-1h-.1l-1.1.3.7-.9-.2-.3-.9.3.6-.8-.1-.1-1 .5.6-.5h.1l.3-.2zm-6.5 12.38c.4.06.7.12 1.1.15l.4-.36c-.1.5-.6.8-1.4.1zm-.6 1.38a1.8 1.8 0 0 1-.2.26l.2 1.23-.6-.95a3.93 3.93 0 0 1-.3.18l-.1 1.18-.7-.83a4.88 4.88 0 0 0-.4.2v.4l-.5-.04-.3.3v.7l-1.3.3-.6.4-.2 1.7-1.2-.7-.1.1c-.2.2-.4.2-.6.3l-.3.8h-.4c-.1.2-.1.5 0 .9-.4-.2-.7-.3-1-.3l-.1.8-.5-.6c-.3.2-.5.4-.8.5l-.1.1-.8.5.3.9-.7-.5-.5.4.3 1.5-1.4-.7c-.4.4-.8.7-1.4.6-.9-.1-.1 2.5-1.4 1.7l2-4.9-.3-.1-.4.5c-.2.2-.2-.1-.2-.3v-.6l-.6-.3c-.3.1-.7.3-1.1.2-.5-.2-.5-.8-.4-1v-.1l-1.1.7.2-1.1h-.1l1-.7c1.3-.8 2.3-1.2 3.2-1.8a357.45 357.45 0 0 1 4.5-4.2l.9-1.4c0 .1.1.1.1 0 .9-1.1.7-.2.7.6 0 .4.3.3.5.3 1.9-.5 2.1-.4 2.8 1.1.1.2.2.4.3.2 1-1.2 1.1-.3 1.5-.2l.5.2.7-.5c.7-.4.9-.4 1.3.2.3.4.5.8.7 1.2l.5.1.4 2.1-.9-.6zm-20.8 13.7c-.1.1-.3-.2-.6-.25a5.84 5.84 0 0 1-.7.5c-.4.3-.3.6-.3.8v.64s-.4.47-.5.45l-.8-.56c-.2.52-.4 1.37-.9 1.14-1.1-.5-1.4.36-2 .65-.5.26-1.5.07-1 1.7.1.34-.4.6-.6.4-1.3-1.35-.3 1.24-1.1.55-1.3-1.14-.7.48-1 .76-.7.6-1.4 1.2-2.4 1.13l-.2-1 .3-.5 1.1-.2c.1-.5.1-1 .2-1.5 1.1-1.2 2.4-2.2 4.6-3.7.4-.3 1.1-.7 1.1-1 0-2.2 1.9-3.1 3.1-4.3l1.2-1.2c.2.1.3.5.3 1.1 0 .1.1.3.2.2 1-1.2.9-.4 1.1-.3l.3.1c.2-.2.4-.4.6-.5.6-.5.7-.4.8.1 0 .1 0 .2.1.3l-.7.1c.1.4.3.7.5 1.1.1.2.2.5.3.8-.4 0-.7-.2-1.2-.3-.1-.1-.4.1-.6.2 0 0 .1.3.3.6l.2.3c-.1.1-.2.2-.4.2 0 0-.2.6-.5.8zm-14.3 9.88l.1-.18c0 .1 0 .16-.1.18zm-7.4-17.04c-1.1-.32-.9-.8-.7-1.22.3-.36.5-.6 0-.96-.4-.27-.4-.7.7-1.02a49.04 49.04 0 0 0 0 1.33l.1.54s-.1.1-.1.2h.2l.1 1zm-.5 6.43l1-.57.2 1.6-1-1.03zm.7-3.88l.1.7-.9-.44.9-.26zm0-.9l.1.6-1.1-.4 1.1-.2zm0-.6l.1.28c-.4-.36-.9-.7-.1-1.12l.1.86zm.3 3.8l-.8-.64.7-.4.1 1.04zm-1.4-9.23l-1.1-.32 1.1-.06c0-.1 0-.2.1-.3l-.9-.54 1.1-.2.1-.36-.3-.14.3-.34c0-.1 0-.2-.1-.3l-.6-.26.5-.98v-.55l-1.3-.8 1.3-.6v-.2c0-.2 0-.4.1-.6l-.5-.5.2-.3c-.2-.1-.4-.2-.8-.3.4-.2.7-.4.8-.6l-.6-.4.7-.1v-1.5l-.7-.2c.1 0 .2-.1.3-.2l.4-.2v-.2l1.1-.9v.1l-.5 1.2c.2.4.3.9.5 1.3h.4c.4-.1.5-.5.8 0 .3.4.5.7.4 1 0 .1-.1.3-.2.5l.7.7c.5-.1 1-.3 1-.3l-.5 1c-.1.1-.1.3-.4.6.2-.1.3-.1.4-.1l-1.2 1.4s-.2 1-.4 1.7c-.1.4-.3 1.6-.4 2.7v.7l-1.9-.5 1-.4a1.18 1.18 0 0 1-.1-.3zm17-14.13l.1 1.2-1.3.2-1.3 1.4-.1 2.2-2.4.7a24.67 24.67 0 0 1-1.1 1.3v-.5l.2-.3a1.8 1.8 0 0 0-.2.1l.1-.9s.7-1.6.9-1.8c.1-.1.8-.3 1.4-.6.5-1.5.6-3.3 1.5-4a5.83 5.83 0 0 0 1.4-1.8h.3l1.1-.1.3.9s.2.6.1 1a1.4 1.4 0 0 1 0 .2l.3.2-.8 1zm-12.6.2l.7-.9h-.6c1.3-1.4 2.1-2.4 2.1-2.4l.9-.4c.3-.1.4-.1.7-.2l.4-.1c-.3 2.2-1.9 3.9-2.8 5.9a4.58 4.58 0 0 1-.4.2c-.2.1-.2 0-.1-.1s.2-.2.3-.6a.7.7 0 0 1 .1-.2 1.5 1.5 0 0 1 0-.2l-.3.1-.7-.4c-.2-.1-.1-.2 0-.4zm25.4 4.8l-1.1.6-3.8 3.5a49.8 49.8 0 0 1-4 4.8l.4-.8-1.4 1.5.4-.9a.5.5 0 0 1-.2 0l-.9.8.7-.9a.76.76 0 0 1-.1-.1l-.8.6.6-.9a.9.9 0 0 0-.1-.1l-.2.2v-.1l1-.3.5-.9-.3-1.8 1 .6.7-1c.1-.8.3-1.5.4-2.3l1.2.2.8-1.1.1-.6.9-.8.6-1v-.5c.5-.2.8.2 1.2.4l1-.6-.3 1 .3.2.8-.7-.2 1 .4.2.9-.5-.1.9zm10.7-7.5l-.1.2h-.5l.6-.3c.1 0 0 .1.1.2zm.3.2h-.1c.1-.1.2-.1.1 0zm2.5 6.9c-.2-.2-.2-.5-.3-.7h-.1l-1.4.6v-1.2l-.7-.3-1 .6c.2-.2.4-.4.7-.5.2-.1.4-.2.6-.2.2 0 .5 0 .7.1.5.1 1 .4 1.3.9.2.3.3.6.4 1v.1zm-43.5-11.1l.2-.7c.1-.4.3-1 .4-1.4.3-.9.4-.7.8-1l.6-.2 1.1-.9c.2-.6.4-1.2.5-1.8.4-.1.5-.4 1 .1.6.7.9 1 .9 1.4 0 .2 0 .4-.1.6l1.2 1 .6-.1c-.8.7-1.7 1.5-2.5 2.1-.5.4-1 .6-1.3.5-.1-.1-.3.4-.5.6-.2.3-.4.4-.1-.7.2-.7-.2-.1-1.2 1.5-1.2 2-1.4 2.1-1.2 1.6.2-.5.8-1.5.4-.9l-.6.8-.3.4c-.1-.1-.3-.3-.3-.5-.1 0 .3-.1.5-.3a3.25 3.25 0 0 1-.1-.6l.3-.4c.1-.2.3-.5.4-.7l-.3.1zm-5.8 14.5c-.3.3-.9.5 0 .7 1.4.2-1.1.7-.2 1.1.7.4.5.9.5 1.4l1.1.5-1 .3v.5l1 .3-1 .4.1.5.9.5-.9.4c0 .2-.1.4-.1.7.6.2 1.3.6 1.3.6 0 .1-.3.5-.8 1a.4.4 0 0 1 0 .2c-.2.5-.2.9-.2 1.4l.3.2c.4.3.6.3.6.6 0 .2-.7.5-.7.7h-.1v.2c1.4.1-.3.5.2.6 1.4.3.5.6-.2.9-.3.2-.1.4 0 .6 1.3 1.5 1.4 1.7.3 3.1-.1.2-.2.4 0 .4 1.6.4.9.9.9 1.4l.1.5c.2.1.5.3.7.4.7.4.7.6.3 1.3-.2.4-.6.7-.8 1l.1 1.1h-.2c-.1.2-.1.4-.2.6-.1.1-.3.2-.5.2-.2-.2-.3-.4-.5-.6-.1-.1-.4-.2-.6-.3l-.2.2-.1.2-.2.7 3.4.6.1.2c0 .3-.2.2-.2.7v.1l2.1.3.1-.2c-.1-.3-.3-.6-.6-1l4.1.7v-.9l-.6-.3c-.2-.1 0-.5.2-.7l.5-.5v-1.3a3.8 3.8 0 0 1-.7-1.6c-.2-.9.3-1.5.5-1.7v.2l3.3-5.2.3-.6 1.2-.8.2.1a2.96 2.96 0 0 0 0-.2l.9-.6s1.5-1 2.3-1.4a2.6 2.6 0 0 1 .4-.1l1.9-2h.1l-.5.6-.3.5a33.7 33.7 0 0 0-2.6 4.5l-.1.8c-.2 1.3 0 1.3-.4 2.2-.5.9-1.4 1.4-1.8 2.2 0 .1-.1.1-.1.2l-.3.7c.6.7.1 1.1-.3 1.5l-.9.3-.9 1-.7 2.4.5.3c-.2.3-.4.7-.5 1.2l3.6 2.1-.1.2v1c-.1.4-.3.3-.4.3-.1 0-.3-.2-.9-.1a.88.88 0 0 1-.4 0 8.85 8.85 0 0 1-.5.1l-.1.4-1.4 1.2c-.5.5-.5.3-.9.2-.2 0-.8-.3-1.2-.5-.4.4-.7 1-.6 2.1l-.6-.8c-1.2.1-1.8 1.3-2.5 2.4-.4.6 0 2.1.9 3.5l.9 1.5c.5 0-.6-2.1.6-1.1.3.3.7.3.9.2.3-.2.6-.5 1-.7l.5-1.3c.4-.8.9-1.1 1.9-.9l1.7.3c1-.4 1.9-.7 2.8-1.2.2-.2.3-.3.3-.5.2-.5-.3-.5.7-1.1 1.1-.5 1.7-.8 2.1-.8.2 0 .4.2.6.3l1.8-1.2c.2-.6.3-1.3.3-1.3l1.3.4c.2 0 .5.1.8.3.6-2.5 2.9-2.3 4.3-3.6.4-.3 1.7.5 1.6 0-.1-1.9 1.3-1.5 1.9-2.2.1-.1.3-.2.4-.3a5.22 5.22 0 0 1 0-.1c-.2-1.3.2-1.7.2-1.7l1.9.5s.2-.3.4-.5c.2-.1.9-1.3.9-1.3l.6-1.1 1.1-.1s.8 0 1.2.2l.2.1 1.2-.7c0-.1.1-.13.2-.13l.2-.1c.2-.4.3-1.3.3-1.4.1-.1.3-.1.4-.2.1-.06 1 .4 1 .4-1.2-2.7 2 .6 1.1-1.7.6.14 1.6.85 1.4-.25-.3-1.3 1.6.8 1-1-.3-1.1.6-.73 1.4-.23-1.1-2.27 1.4.2.9-1.5-.4-1.4 1.3.5 1.4-.55.1-.9.8-1 1.3-1.4l.1-1.3.8.7.5-.3-.1-1.1.9.6.56-.3.1-1.1.9.5.7-.4c0-.6.05-1.5.13-1.5.1-.1.7-.1 1.5 0a.72.72 0 0 1 .2-.1c.6-.1 1.1-.4 1.6-.7l.1-.3c.12-.6 0-.7.3-.9.3-.2.9.3 1.2.1l.2-.1c-.5-1.3.8-.1.6-.6-.3-1.32.4-.8 1.1-.33.3.2.5-.1.67-.4 1.1-2.1 1.3-2.3 3.46-2.4.2 0 .5 0 .48-.2-.3-1.5.6-1.3 1.1-1.6l.6-.3a7.18 7.18 0 0 1 .1-.9c.2-.9.4-1 1.4-1.1.6 0 1.1.1 1.5.1l.3-.1c.07 0 .1 0 .1.05.2.1.38.3.5.5-.2.2-.42.4-.7.6-.02.1-.1.4-.2.7l.3.2a.64.64 0 0 0 .28.1l2.2.4.5-.6c.2-.2.6.1.9.3 0 .1.1.1.3.3l2.9 2.2.4-9.6c0-.1 0-.3-.1-.43a23 23 0 0 0-1.9-1.3c-.7-.1-1.6-.3-2.6-.76-1.5-.6-2-1.4-2.1-1.8l-.22-.1c-.7.1-1.3.26-2 .4l-.4-1.4-1.1-.4-1.4.5-.33-1.1-.5-.2-1.15.8V139l-.2-.1-1.1 1.04.2-1.34c-.7 0-1.8.9-2-.7-1 1.1-1.6.7-2.04.2-.4-.4-.6-.8-1.2-.5-.5.3-1.1.03-1-1.26l-1.5 1.6v-1.1a2.05 2.05 0 0 1-.4 0l-.9.8.4-1.1a4.33 4.33 0 0 1-.4-.2l-1.1.5.2-1.1a5.5 5.5 0 0 0-.5-.26l-.3.3-.3-.46c-.1 0-.2-.1-.4-.1l-.6.4-1-1a16.8 16.8 0 0 1-.7-.3l-1.5.8-.1-1.48-.1-.1c-.2-.1-.4-.25-.6-.4l-.7.1h-.2l-.3-.3c-.2.1-.4.3-.64.5a.8.8 0 0 1-.1.1c0-.4-.1-.8-.3-1l-.7.3.2-.7c-.1 0-.2-.1-.3-.1l.2-.4c-.1 0-.3.1-.6.3-.1 0-.1 0-.2-.1.1-.1.1-.16.1-.2.1-.55-.4-.36-1-.16l-.2-.1-.6.63v-.9l-.6-.3-1.2 1-.2-1.5c-.5-.1-1-.3-1.2-.9-.5-.9-2.6 1.7-2.2-.9-1.2 1.2-1.5.5-1.6-.7 0-.4-1.3.5-1.3.1v-.3c-.3.2-.6.4-.7.3-.2 0 0-.5.1-.9a.37.37 0 0 0-.1-.3c-.2-.1-.4-.1-.5-.2 0 0-.7.1-1.1 0-.1 0 0-.4-.1-.7a6.26 6.26 0 0 1-.9-.4c-.5-.2-.7.1-.9.1l-.6.3s-.6-.1-.7-.3l.1-1c-.6 0-1.5.3-1.5-.3-.2-1.2-1.1-1.1-1.7-1.5-.5-.3-.8-1.3-2.1-.1-.3.2-.8-.1-.7-.4.56-1.8-1.3.3-1-.7.4-1.7-.8-.4-1.2-.6-.9-.3-1.8-.7-2.2-1.7-.2-.4-1.2.3-.8-1.1.1-.4-.8-.7-1.3-.3a2.42 2.42 0 0 1-.3.3 3.4 3.4 0 0 0-.6-.9l-.1-.1a3.14 3.14 0 0 0-.6-.5l-1.5-.9c-.4.4-.2 1-.1 1.6-.1 0-.13-.1-.2-.2s0-.4-.3-.8a.93.93 0 0 1-.1-.4 8.87 8.87 0 0 1-.3-.4l-.4.1-1.8-.8c-.6-.3-.4-.4-.5-.7 0-.2-.1-.9 0-1.4-.5-.2-1.2-.2-2.2.2.3-.4.6-.8.6-.9-.4-1.1-1.5-1.1-2.5-1.5-.5-.2-1.9.2-3.4.9l-1.5.9c.1.3.6.2 1.04.2.5-.1.7 0 .3.7-.2.4-.1.9.1 1.1l1.1 1.1 1.6.3c.94.1 1.4.5 1.8 1.6l.5 1.8c.8.7 1.55 1.4 2.4 2.1.24 0 .5.1.6 0a.76.76 0 0 0 .4-.1l-1.3 2.5-.1.7c-.6.3-1.4.9-2.2 1.7l-1.1 1.1a2.1 2.1 0 0 1-.2-.3 4.37 4.37 0 0 1-.86-.4c-.3-.2-.1-.3 0-.3.1-.1.3-.2.5-.6a.73.73 0 0 1 .2-.2l.1-.35-.3-.2-.3-1.36c-.1-.5 0-.4.3-.6.1-.1.6-.4 1-.7-.2-.4-.6-.8-1.55-1.2.5 0 1-.1 1-.1.5-.9-.2-1.7-.9-2.6-.3-.5-1.7-.8-3.4-.7l-1.7.1c-.16.33 2.2.32.7.9-.4.1-.6.4-.6.6.1.3.1.6.2.9l.82.8c.5.5.5 1-.2 1.6l-1.1 1.1c-.14.7-.3 1.5-.3 2.2.1.2.2.3.3.4.3.3.66 0 .6.9 0 .9-.03 1.4-.3 1.7-.1.1-.3.2-.5.3l.1 1.6c.47.4 1 .7 1 .7l-1 .7c-.1.1-.3.3-.6.44 1.9 1.2.5 2.7.9 4.1.1.3-1.2.9-.7 1.1 1.7.6.7 1.3.95 2l.1.4h.1c.4.1.6.2.8.3-.2.4-.3.9-.5 1.3l-.26.2.1.2-.7 1.68a97.55 97.55 0 0 0-1.2 3.3l-1.3 3c-.2.8-.3 1.4-.3 1.7 0 1.1 1.1-1.3-.6 3.8l-.2.7-.1.3v.9c2.9-2.3 4.5-3.5 5.4-4l.3-.1z"/></g><path d="M-40-54h400v400H-40z"/></g></svg>